AtkinsonHyperlegibleMono-MediumItalic.sfdir
StartChar: numbersign
Encoding: 35 35 261
Width: 632
GlyphClass: 1
Flags: W
LayerCount: 2
Fore
SplineSet
111 171 m 1,0,-1
 13 171 l 1,1,-1
 44 263 l 1,2,-1
 140 263 l 1,3,-1
 188 405 l 1,4,-1
 91 405 l 1,5,-1
 122 497 l 1,6,-1
 219 497 l 1,7,-1
 277 668 l 1,8,-1
 377 668 l 1,9,-1
 319 497 l 1,10,-1
 457 497 l 1,11,-1
 515 668 l 1,12,-1
 616 668 l 1,13,-1
 558 497 l 1,14,-1
 655 497 l 1,15,-1
 624 405 l 1,16,-1
 529 405 l 1,17,-1
 481 263 l 1,18,-1
 577 263 l 1,19,-1
 546 171 l 1,20,-1
 450 171 l 1,21,-1
 392 0 l 1,22,-1
 292 0 l 1,23,-1
 350 171 l 1,24,-1
 212 171 l 1,25,-1
 154 0 l 1,26,-1
 53 0 l 1,27,-1
 111 171 l 1,0,-1
380 263 m 1,28,-1
 428 405 l 1,29,-1
 289 405 l 1,30,-1
 241 263 l 1,31,-1
 380 263 l 1,28,-1
EndSplineSet
EndChar
StartChar: dollar
Encoding: 36 36 304
Width: 632
GlyphClass: 1
Flags: W
LayerCount: 2
Fore
SplineSet
111 47 m 128,-1,1
 60 87 60 87 44 153 c 1,2,-1
 148 189 l 1,3,4
 155 149 155 149 182 122.5 c 128,-1,5
 209 96 209 96 250 85 c 1,6,-1
 297 308 l 1,7,-1
 266 319 l 2,8,9
 121 371 121 371 121 480 c 0,10,11
 121 534 121 534 153.5 579.5 c 128,-1,12
 186 625 186 625 244 652.5 c 128,-1,13
 302 680 302 680 376 680 c 1,14,-1
 393 758 l 1,15,-1
 448 758 l 1,16,-1
 431 676 l 1,17,18
 493 666 493 666 540.5 632.5 c 128,-1,19
 588 599 588 599 607 545 c 1,20,-1
 506 509 l 1,21,22
 495 538 495 538 469.5 557.5 c 128,-1,23
 444 577 444 577 411 584 c 1,24,-1
 369 386 l 1,25,-1
 394 377 l 2,26,27
 482 347 482 347 524 308 c 128,-1,28
 566 269 566 269 566 206 c 0,29,30
 566 146 566 146 531 96 c 128,-1,31
 496 46 496 46 432 17 c 128,-1,32
 368 -12 368 -12 285 -11 c 1,33,-1
 268 -90 l 1,34,-1
 213 -90 l 1,35,-1
 231 -6 l 1,36,0
 162 7 162 7 111 47 c 128,-1,1
412.5 110 m 128,-1,38
 453 143 453 143 453 192 c 0,39,40
 453 225 453 225 429.5 246 c 128,-1,41
 406 267 406 267 362 284 c 2,42,-1
 349 289 l 1,43,-1
 304 77 l 1,44,37
 372 77 372 77 412.5 110 c 128,-1,38
267.5 562 m 128,-1,46
 233 535 233 535 233 491 c 0,47,48
 233 438 233 438 304 410 c 2,49,-1
 318 404 l 1,50,-1
 357 591 l 1,51,45
 302 589 302 589 267.5 562 c 128,-1,46
EndSplineSet
EndChar
StartChar: percent
Encoding: 37 37 332
Width: 632
GlyphClass: 1
Flags: W
LayerCount: 2
Fore
SplineSet
140 409.5 m 128,-1,1
 107 429 107 429 87.5 462.5 c 128,-1,2
 68 496 68 496 68 536 c 256,3,4
 68 576 68 576 87.5 609 c 128,-1,5
 107 642 107 642 140 661.5 c 128,-1,6
 173 681 173 681 213 681 c 256,7,8
 253 681 253 681 286 661.5 c 128,-1,9
 319 642 319 642 338.5 609 c 128,-1,10
 358 576 358 576 358 536 c 256,11,12
 358 496 358 496 338.5 462.5 c 128,-1,13
 319 429 319 429 286 409.5 c 128,-1,14
 253 390 253 390 213 390 c 256,15,0
 173 390 173 390 140 409.5 c 128,-1,1
266 481.5 m 128,-1,17
 288 504 288 504 288 536 c 256,18,19
 288 568 288 568 266 590.5 c 128,-1,20
 244 613 244 613 213 613 c 256,21,22
 182 613 182 613 160 590.5 c 128,-1,23
 138 568 138 568 138 536 c 256,24,25
 138 504 138 504 160 481.5 c 128,-1,26
 182 459 182 459 213 459 c 256,27,16
 244 459 244 459 266 481.5 c 128,-1,17
536 668 m 1,28,-1
 630 668 l 1,29,-1
 132 0 l 1,30,-1
 38 0 l 1,31,-1
 536 668 l 1,28,-1
383 6.5 m 128,-1,33
 350 26 350 26 330.5 59.5 c 128,-1,34
 311 93 311 93 311 133 c 256,35,36
 311 173 311 173 330.5 206 c 128,-1,37
 350 239 350 239 383 258.5 c 128,-1,38
 416 278 416 278 456 278 c 256,39,40
 496 278 496 278 529 258.5 c 128,-1,41
 562 239 562 239 581.5 206 c 128,-1,42
 601 173 601 173 601 133 c 256,43,44
 601 93 601 93 581.5 59.5 c 128,-1,45
 562 26 562 26 529 6.5 c 128,-1,46
 496 -13 496 -13 456 -13 c 256,47,32
 416 -13 416 -13 383 6.5 c 128,-1,33
509 78.5 m 128,-1,49
 531 101 531 101 531 133 c 256,50,51
 531 165 531 165 509 187.5 c 128,-1,52
 487 210 487 210 456 210 c 256,53,54
 425 210 425 210 403 187.5 c 128,-1,55
 381 165 381 165 381 133 c 256,56,57
 381 101 381 101 403 78.5 c 128,-1,58
 425 56 425 56 456 56 c 256,59,48
 487 56 487 56 509 78.5 c 128,-1,49
EndSplineSet
EndChar
StartChar: ampersand
Encoding: 38 38 289
Width: 632
GlyphClass: 1
Flags: W
LayerCount: 2
Fore
SplineSet
111.5 9.5 m 128,-1,1
 64 31 64 31 37 71 c 128,-1,2
 10 111 10 111 10 163 c 0,3,4
 10 247 10 247 66.5 306 c 128,-1,5
 123 365 123 365 216 395 c 1,6,7
 177 458 177 458 177 517 c 0,8,9
 177 562 177 562 199.5 603 c 128,-1,10
 222 644 222 644 264 670 c 128,-1,11
 306 696 306 696 360 696 c 0,12,13
 406 696 406 696 441.5 677 c 128,-1,14
 477 658 477 658 496 625.5 c 128,-1,15
 515 593 515 593 515 555 c 0,16,17
 515 489 515 489 468.5 437.5 c 128,-1,18
 422 386 422 386 348 359 c 1,19,-1
 441 213 l 1,20,21
 478 264 478 264 500 355 c 1,22,-1
 594 355 l 1,23,24
 575 282 575 282 548 230.5 c 128,-1,25
 521 179 521 179 485 137 c 1,26,-1
 570 0 l 1,27,-1
 459 0 l 1,28,-1
 418 65 l 1,29,30
 328 -12 328 -12 219 -12 c 0,31,0
 159 -12 159 -12 111.5 9.5 c 128,-1,1
374 141 m 1,33,-1
 258 326 l 1,34,35
 194 306 194 306 154.5 268.5 c 128,-1,36
 115 231 115 231 115 176 c 0,37,38
 115 132 115 132 149 105.5 c 128,-1,39
 183 79 183 79 235 79 c 0,40,32
 312 79 312 79 374 141 c 1,33,-1
393 472.5 m 128,-1,42
 426 505 426 505 426 546 c 0,43,44
 426 575 426 575 406.5 593.5 c 128,-1,45
 387 612 387 612 356 612 c 0,46,47
 317 612 317 612 293 585.5 c 128,-1,48
 269 559 269 559 269 526 c 0,49,50
 269 484 269 484 312 422 c 1,51,41
 360 440 360 440 393 472.5 c 128,-1,42
EndSplineSet
EndChar
StartChar: quotesingle
Encoding: 39 39 285
Width: 632
GlyphClass: 1
Flags: W
LayerCount: 2
Fore
SplineSet
351 668 m 1,0,-1
 460 668 l 1,1,-1
 393 426 l 1,2,-1
 316 426 l 1,3,-1
 351 668 l 1,0,-1
EndSplineSet
EndChar
StartChar: parenright
Encoding: 41 41 269
Width: 632
GlyphClass: 1
Flags: W
LayerCount: 2
Fore
SplineSet
282 70 m 128,-1,1
 377 203 377 203 377 353 c 0,2,3
 377 442 377 442 343 532.5 c 128,-1,4
 309 623 309 623 244 708 c 1,5,-1
 363 708 l 1,6,7
 422 628 422 628 453 538.5 c 128,-1,8
 484 449 484 449 484 358 c 0,9,10
 484 208 484 208 403 73.5 c 128,-1,11
 322 -61 322 -61 178 -162 c 1,12,-1
 37 -162 l 1,13,0
 187 -63 187 -63 282 70 c 128,-1,1
EndSplineSet
EndChar
StartChar: asterisk
Encoding: 42 42 260
Width: 632
GlyphClass: 1
Flags: W
LayerCount: 2
Fore
SplineSet
203 370 m 1,0,-1
 311 478 l 1,1,-1
 194 531 l 1,2,-1
 228 592 l 1,3,-1
 345 538 l 1,4,-1
 372 668 l 1,5,-1
 439 668 l 1,6,-1
 411 532 l 1,7,-1
 543 559 l 1,8,-1
 550 493 l 1,9,-1
 418 466 l 1,10,-1
 469 358 l 1,11,-1
 410 325 l 1,12,-1
 358 431 l 1,13,-1
 251 325 l 1,14,-1
 203 370 l 1,0,-1
EndSplineSet
EndChar
StartChar: plus
Encoding: 43 43 311
Width: 632
GlyphClass: 1
Flags: W
LayerCount: 2
Fore
SplineSet
259 201 m 1,0,-1
 53 201 l 1,1,-1
 73 295 l 1,2,-1
 279 295 l 1,3,-1
 322 496 l 1,4,-1
 416 496 l 1,5,-1
 373 295 l 1,6,-1
 579 295 l 1,7,-1
 559 201 l 1,8,-1
 353 201 l 1,9,-1
 310 0 l 1,10,-1
 216 0 l 1,11,-1
 259 201 l 1,0,-1
EndSplineSet
EndChar
StartChar: comma
Encoding: 44 44 250
Width: 632
GlyphClass: 1
Flags: W
LayerCount: 2
Fore
SplineSet
211 25.5 m 128,-1,1
 197 47 197 47 197 72 c 0,2,3
 197 107 197 107 221.5 131 c 128,-1,4
 246 155 246 155 281 155 c 256,5,6
 316 155 316 155 339.5 131.5 c 128,-1,7
 363 108 363 108 363 77 c 0,8,9
 363 62 363 62 358 49 c 128,-1,10
 353 36 353 36 343 20 c 2,11,-1
 237 -150 l 1,12,-1
 158 -150 l 1,13,-1
 249 -6 l 1,14,0
 225 4 225 4 211 25.5 c 128,-1,1
EndSplineSet
EndChar
StartChar: period
Encoding: 46 46 249
Width: 632
GlyphClass: 1
Flags: W
LayerCount: 2
Fore
SplineSet
220 13 m 128,-1,1
 195 38 195 38 195 72 c 256,2,3
 195 106 195 106 219.5 130.5 c 128,-1,4
 244 155 244 155 279 155 c 256,5,6
 314 155 314 155 338 131 c 128,-1,7
 362 107 362 107 362 72 c 256,8,9
 362 37 362 37 337.5 12.5 c 128,-1,10
 313 -12 313 -12 279 -12 c 256,11,0
 245 -12 245 -12 220 13 c 128,-1,1
EndSplineSet
EndChar
StartChar: two
Encoding: 50 50 231
Width: 632
GlyphClass: 5
Flags: W
LayerCount: 2
Fore
SplineSet
273 239.5 m 128,-1,1
 361 300 361 300 424 369 c 128,-1,2
 487 438 487 438 487 503 c 0,3,4
 487 545 487 545 458 570.5 c 128,-1,5
 429 596 429 596 382 596 c 0,6,7
 337 596 337 596 300.5 571.5 c 128,-1,8
 264 547 264 547 243 494 c 1,9,-1
 144 532 l 1,10,11
 178 606 178 606 241.5 643 c 128,-1,12
 305 680 305 680 385 680 c 0,13,14
 478 680 478 680 538 635 c 128,-1,15
 598 590 598 590 598 511 c 0,16,17
 598 424 598 424 534 345.5 c 128,-1,18
 470 267 470 267 388 211 c 128,-1,19
 306 155 306 155 197 93 c 1,20,-1
 528 93 l 1,21,-1
 509 0 l 1,22,-1
 25 0 l 1,23,-1
 44 92 l 1,24,0
 185 179 185 179 273 239.5 c 128,-1,1
EndSplineSet
Substitution2: "'sups' Superscript in Latin lookup 6 subtable" uni00B2
AlternateSubs2: "'aalt' Access All Alternates in Latin lookup 0 subtable" uni00B2
EndChar
StartChar: four
Encoding: 52 52 233
Width: 632
GlyphClass: 5
Flags: W
LayerCount: 2
Fore
SplineSet
356 157 m 1,0,-1
 27 157 l 1,1,-1
 46 247 l 1,2,-1
 458 668 l 1,3,-1
 574 668 l 1,4,-1
 486 255 l 1,5,-1
 588 255 l 1,6,-1
 568 157 l 1,7,-1
 466 157 l 1,8,-1
 432 0 l 1,9,-1
 323 0 l 1,10,-1
 356 157 l 1,0,-1
377 255 m 1,11,-1
 433 518 l 1,12,-1
 429 518 l 1,13,-1
 169 254 l 1,14,-1
 377 255 l 1,11,-1
EndSplineSet
EndChar
StartChar: six
Encoding: 54 54 235
Width: 632
GlyphClass: 1
Flags: W
LayerCount: 2
Fore
SplineSet
137 51.5 m 128,-1,1
 81 115 81 115 81 223 c 0,2,3
 81 316 81 316 116.5 423 c 128,-1,4
 152 530 152 530 226.5 605 c 128,-1,5
 301 680 301 680 410 680 c 0,6,7
 479 680 479 680 528.5 652.5 c 128,-1,8
 578 625 578 625 599 569 c 1,9,-1
 500 534 l 1,10,11
 490 563 490 563 463.5 580 c 128,-1,12
 437 597 437 597 401 597 c 0,13,14
 331 597 331 597 283 532.5 c 128,-1,15
 235 468 235 468 214 379 c 1,16,17
 242 412 242 412 284.5 428.5 c 128,-1,18
 327 445 327 445 370 445 c 0,19,20
 429 445 429 445 474 420 c 128,-1,21
 519 395 519 395 543.5 350.5 c 128,-1,22
 568 306 568 306 568 250 c 0,23,24
 568 181 568 181 534 121 c 128,-1,25
 500 61 500 61 439 24.5 c 128,-1,26
 378 -12 378 -12 300 -12 c 0,27,0
 193 -12 193 -12 137 51.5 c 128,-1,1
387 97 m 128,-1,29
 421 122 421 122 438.5 161 c 128,-1,30
 456 200 456 200 456 242 c 0,31,32
 456 295 456 295 425 328 c 128,-1,33
 394 361 394 361 338 361 c 0,34,35
 292 361 292 361 257.5 337 c 128,-1,36
 223 313 223 313 204.5 274 c 128,-1,37
 186 235 186 235 186 192 c 0,38,39
 186 138 186 138 218.5 105 c 128,-1,40
 251 72 251 72 307 72 c 0,41,28
 353 72 353 72 387 97 c 128,-1,29
EndSplineSet
EndChar
StartChar: seven
Encoding: 55 55 236
Width: 632
GlyphClass: 1
Flags: W
LayerCount: 2
Fore
SplineSet
500 576 m 1,0,-1
 152 576 l 1,1,-1
 171 668 l 1,2,-1
 643 668 l 1,3,-1
 623 576 l 1,4,-1
 238 0 l 1,5,-1
 105 0 l 1,6,-1
 500 576 l 1,0,-1
EndSplineSet
EndChar
StartChar: eight
Encoding: 56 56 237
Width: 632
GlyphClass: 1
Flags: W
LayerCount: 2
Fore
SplineSet
173 11.5 m 128,-1,1
 116 34 116 34 82 77 c 128,-1,2
 48 120 48 120 48 179 c 0,3,4
 48 255 48 255 93 308.5 c 128,-1,5
 138 362 138 362 213 384 c 1,6,7
 181 421 181 421 181 475 c 256,8,9
 181 529 181 529 208.5 577 c 128,-1,10
 236 625 236 625 283.5 653.5 c 128,-1,11
 331 682 331 682 387 682 c 0,12,13
 437 682 437 682 475.5 660.5 c 128,-1,14
 514 639 514 639 534.5 601.5 c 128,-1,15
 555 564 555 564 555 519 c 0,16,17
 555 471 555 471 532 428.5 c 128,-1,18
 509 386 509 386 471 359 c 1,19,20
 513 334 513 334 537.5 296.5 c 128,-1,21
 562 259 562 259 562 212 c 0,22,23
 562 145 562 145 526 94.5 c 128,-1,24
 490 44 490 44 429.5 16.5 c 128,-1,25
 369 -11 369 -11 298 -11 c 0,26,0
 230 -11 230 -11 173 11.5 c 128,-1,1
407 114.5 m 128,-1,28
 450 148 450 148 450 203 c 0,29,30
 450 252 450 252 409.5 281.5 c 128,-1,31
 369 311 369 311 309 311 c 0,32,33
 246 311 246 311 203 277.5 c 128,-1,34
 160 244 160 244 160 189 c 0,35,36
 160 139 160 139 201 110 c 128,-1,37
 242 81 242 81 301 81 c 0,38,27
 364 81 364 81 407 114.5 c 128,-1,28
430.5 432.5 m 128,-1,40
 462 464 462 464 462 506 c 0,41,42
 462 541 462 541 439 565.5 c 128,-1,43
 416 590 416 590 379 590 c 0,44,45
 336 590 336 590 304.5 558.5 c 128,-1,46
 273 527 273 527 273 484 c 0,47,48
 273 449 273 449 296.5 425 c 128,-1,49
 320 401 320 401 357 401 c 0,50,39
 399 401 399 401 430.5 432.5 c 128,-1,40
EndSplineSet
EndChar
StartChar: equal
Encoding: 61 61 315
Width: 632
GlyphClass: 1
Flags: W
LayerCount: 2
Fore
SplineSet
93 390 m 1,0,-1
 598 390 l 1,1,-1
 579 297 l 1,2,-1
 74 297 l 1,3,-1
 93 390 l 1,0,-1
55 208 m 1,4,-1
 560 208 l 1,5,-1
 540 113 l 1,6,-1
 35 113 l 1,7,-1
 55 208 l 1,4,-1
EndSplineSet
EndChar
StartChar: question
Encoding: 63 63 256
Width: 632
GlyphClass: 1
Flags: W
LayerCount: 2
Fore
SplineSet
273 329.5 m 128,-1,1
 304 365 304 365 374 397 c 0,2,3
 430 422 430 422 460.5 448.5 c 128,-1,4
 491 475 491 475 491 511 c 0,5,6
 491 545 491 545 458.5 568 c 128,-1,7
 426 591 426 591 377 591 c 256,8,9
 328 591 328 591 291 563.5 c 128,-1,10
 254 536 254 536 239 496 c 1,11,-1
 139 530 l 1,12,13
 166 602 166 602 231.5 641 c 128,-1,14
 297 680 297 680 386 680 c 0,15,16
 440 680 440 680 490.5 661.5 c 128,-1,17
 541 643 541 643 573 606.5 c 128,-1,18
 605 570 605 570 605 519 c 0,19,20
 605 451 605 451 561.5 405.5 c 128,-1,21
 518 360 518 360 436 322 c 0,22,23
 382 297 382 297 362 278.5 c 128,-1,24
 342 260 342 260 337 230 c 2,25,-1
 331 202 l 1,26,-1
 221 202 l 1,27,-1
 227 230 l 2,28,0
 242 294 242 294 273 329.5 c 128,-1,1
195 10.5 m 128,-1,30
 173 33 173 33 173 64 c 256,31,32
 173 95 173 95 195 117 c 128,-1,33
 217 139 217 139 248 139 c 256,34,35
 279 139 279 139 301 117 c 128,-1,36
 323 95 323 95 323 64 c 256,37,38
 323 33 323 33 301 10.5 c 128,-1,39
 279 -12 279 -12 248 -12 c 256,40,29
 217 -12 217 -12 195 10.5 c 128,-1,30
EndSplineSet
EndChar
StartChar: A
Encoding: 65 65 2
Width: 632
GlyphClass: 2
Flags: W
AnchorPoint: "Anchor-2" 548 10 basechar 0
AnchorPoint: "Anchor-1" 405 668 basechar 0
AnchorPoint: "Anchor-0" 263 0 basechar 0
LayerCount: 2
Fore
SplineSet
346 668 m 1,0,-1
 465 668 l 1,1,-1
 546 0 l 1,2,-1
 444 0 l 1,3,-1
 428 141 l 1,4,-1
 163 141 l 1,5,-1
 87 0 l 1,6,-1
 -20 0 l 1,7,-1
 346 668 l 1,0,-1
421 234 m 1,8,-1
 385 552 l 1,9,-1
 381 552 l 1,10,-1
 209 234 l 1,11,-1
 421 234 l 1,8,-1
EndSplineSet
Substitution2: "Single Substitution lookup 14 subtable" ordfeminine
AlternateSubs2: "'aalt' Access All Alternates in Latin lookup 0 subtable" ordfeminine
EndChar
StartChar: B
Encoding: 66 66 13
Width: 632
GlyphClass: 2
Flags: W
AnchorPoint: "Anchor-1" 411 668 basechar 0
AnchorPoint: "Anchor-0" 269 0 basechar 0
LayerCount: 2
Fore
SplineSet
180 668 m 1,0,-1
 400 668 l 2,1,2
 500 668 500 668 552.5 626.5 c 128,-1,3
 605 585 605 585 605 516 c 0,4,5
 605 461 605 461 575 413 c 128,-1,6
 545 365 545 365 484 344 c 1,7,8
 522 326 522 326 544.5 291.5 c 128,-1,9
 567 257 567 257 567 212 c 0,10,11
 567 154 567 154 541 106 c 128,-1,12
 515 58 515 58 463.5 29 c 128,-1,13
 412 0 412 0 338 0 c 2,14,-1
 38 0 l 1,15,-1
 180 668 l 1,0,-1
425.5 125 m 128,-1,17
 460 159 460 159 460 209 c 0,18,19
 460 248 460 248 432.5 273.5 c 128,-1,20
 405 299 405 299 353 299 c 2,21,-1
 207 299 l 1,22,-1
 163 91 l 1,23,-1
 327 91 l 2,24,16
 391 91 391 91 425.5 125 c 128,-1,17
466.5 420 m 128,-1,26
 495 450 495 450 495 495 c 0,27,28
 495 531 495 531 470 554 c 128,-1,29
 445 577 445 577 395 577 c 2,30,-1
 267 577 l 1,31,-1
 227 390 l 1,32,-1
 384 390 l 2,33,25
 438 390 438 390 466.5 420 c 128,-1,26
EndSplineSet
EndChar
StartChar: C
Encoding: 67 67 14
Width: 632
GlyphClass: 2
Flags: W
AnchorPoint: "Anchor-1" 427 668 basechar 0
AnchorPoint: "Anchor-0" 314 0 basechar 0
LayerCount: 2
Fore
SplineSet
128.5 63 m 128,-1,1
 66 138 66 138 66 260 c 0,2,3
 66 356 66 356 104.5 453.5 c 128,-1,4
 143 551 143 551 219.5 615.5 c 128,-1,5
 296 680 296 680 403 680 c 0,6,7
 485 680 485 680 543 638.5 c 128,-1,8
 601 597 601 597 623 522 c 1,9,-1
 531 490 l 1,10,11
 517 536 517 536 483 562.5 c 128,-1,12
 449 589 449 589 401 589 c 0,13,14
 328 589 328 589 277.5 536.5 c 128,-1,15
 227 484 227 484 202 408.5 c 128,-1,16
 177 333 177 333 177 266 c 0,17,18
 177 184 177 184 214 132 c 128,-1,19
 251 80 251 80 326 80 c 0,20,21
 371 80 371 80 410 103.5 c 128,-1,22
 449 127 449 127 479 174 c 1,23,-1
 568 137 l 1,24,25
 521 64 521 64 455.5 26 c 128,-1,26
 390 -12 390 -12 313 -12 c 0,27,0
 191 -12 191 -12 128.5 63 c 128,-1,1
EndSplineSet
EndChar
StartChar: I
Encoding: 73 73 39
Width: 632
GlyphClass: 2
Flags: W
AnchorPoint: "Anchor-2" 455 10 basechar 0
AnchorPoint: "Anchor-1" 405 668 basechar 0
AnchorPoint: "Anchor-0" 263 0 basechar 0
LayerCount: 2
Fore
SplineSet
91 83 m 1,0,-1
 224 83 l 1,1,-1
 331 585 l 1,2,-1
 198 585 l 1,3,-1
 215 668 l 1,4,-1
 595 668 l 1,5,-1
 578 585 l 1,6,-1
 444 585 l 1,7,-1
 337 83 l 1,8,-1
 471 83 l 1,9,-1
 453 0 l 1,10,-1
 73 0 l 1,11,-1
 91 83 l 1,0,-1
EndSplineSet
EndChar
StartChar: O
Encoding: 79 79 62
Width: 632
GlyphClass: 2
Flags: W
AnchorPoint: "Anchor-3" 708 668 basechar 0
AnchorPoint: "Anchor-2" 521 10 basechar 0
AnchorPoint: "Anchor-1" 406 668 basechar 0
AnchorPoint: "Anchor-0" 264 0 basechar 0
LayerCount: 2
Fore
SplineSet
111 60.5 m 128,-1,1
 51 133 51 133 51 254 c 0,2,3
 51 353 51 353 88 451.5 c 128,-1,4
 125 550 125 550 199 615 c 128,-1,5
 273 680 273 680 379 680 c 0,6,7
 498 680 498 680 558 607.5 c 128,-1,8
 618 535 618 535 618 415 c 0,9,10
 618 316 618 316 581 217 c 128,-1,11
 544 118 544 118 470 53 c 128,-1,12
 396 -12 396 -12 290 -12 c 0,13,0
 171 -12 171 -12 111 60.5 c 128,-1,1
413.5 135.5 m 128,-1,15
 462 191 462 191 485 269.5 c 128,-1,16
 508 348 508 348 508 415 c 0,17,18
 508 492 508 492 475.5 540.5 c 128,-1,19
 443 589 443 589 374 589 c 0,20,21
 304 589 304 589 255.5 533.5 c 128,-1,22
 207 478 207 478 183.5 399.5 c 128,-1,23
 160 321 160 321 160 254 c 0,24,25
 160 176 160 176 193 128 c 128,-1,26
 226 80 226 80 295 80 c 0,27,14
 365 80 365 80 413.5 135.5 c 128,-1,15
EndSplineSet
Substitution2: "Single Substitution lookup 14 subtable" ordmasculine
AlternateSubs2: "'aalt' Access All Alternates in Latin lookup 0 subtable" ordmasculine
EndChar
StartChar: P
Encoding: 80 80 71
Width: 632
GlyphClass: 2
Flags: W
AnchorPoint: "Anchor-1" 412 668 basechar 0
AnchorPoint: "Anchor-0" 270 0 basechar 0
LayerCount: 2
Fore
SplineSet
182 668 m 1,0,-1
 399 668 l 2,1,2
 506 668 506 668 569 620 c 128,-1,3
 632 572 632 572 632 487 c 0,4,5
 632 418 632 418 601.5 365.5 c 128,-1,6
 571 313 571 313 514 283.5 c 128,-1,7
 457 254 457 254 381 254 c 2,8,-1
 199 254 l 1,9,-1
 145 0 l 1,10,-1
 40 0 l 1,11,-1
 182 668 l 1,0,-1
487 381 m 128,-1,13
 523 417 523 417 523 477 c 0,14,15
 523 526 523 526 488 551.5 c 128,-1,16
 453 577 453 577 390 577 c 2,17,-1
 268 577 l 1,18,-1
 219 345 l 1,19,-1
 382 345 l 2,20,12
 451 345 451 345 487 381 c 128,-1,13
EndSplineSet
EndChar
StartChar: Q
Encoding: 81 81 73
Width: 632
GlyphClass: 1
Flags: W
LayerCount: 2
Fore
SplineSet
111 60.5 m 128,-1,1
 51 133 51 133 51 254 c 0,2,3
 51 353 51 353 88 451.5 c 128,-1,4
 125 550 125 550 199 615 c 128,-1,5
 273 680 273 680 379 680 c 0,6,7
 498 680 498 680 558 607.5 c 128,-1,8
 618 535 618 535 618 415 c 0,9,10
 618 337 618 337 595 257.5 c 128,-1,11
 572 178 572 178 528 117 c 1,12,-1
 586 48 l 1,13,-1
 519 -9 l 1,14,-1
 467 52 l 1,15,16
 390 -12 390 -12 290 -12 c 0,17,0
 171 -12 171 -12 111 60.5 c 128,-1,1
405 125 m 1,19,-1
 289 262 l 1,20,-1
 356 319 l 1,21,-1
 455 202 l 1,22,23
 481 250 481 250 494.5 307.5 c 128,-1,24
 508 365 508 365 508 415 c 0,25,26
 508 492 508 492 475.5 540.5 c 128,-1,27
 443 589 443 589 374 589 c 0,28,29
 304 589 304 589 255.5 533.5 c 128,-1,30
 207 478 207 478 183.5 399.5 c 128,-1,31
 160 321 160 321 160 254 c 0,32,33
 160 176 160 176 193 128 c 128,-1,34
 226 80 226 80 295 80 c 0,35,18
 357 80 357 80 405 125 c 1,19,-1
EndSplineSet
EndChar
StartChar: R
Encoding: 82 82 74
Width: 632
GlyphClass: 2
Flags: W
AnchorPoint: "Anchor-1" 384 668 basechar 0
AnchorPoint: "Anchor-0" 261 0 basechar 0
LayerCount: 2
Fore
SplineSet
174 668 m 1,0,-1
 387 668 l 2,1,2
 486 668 486 668 547 621 c 128,-1,3
 608 574 608 574 608 492 c 0,4,5
 608 404 608 404 554.5 344 c 128,-1,6
 501 284 501 284 395 275 c 1,7,-1
 529 0 l 1,8,-1
 410 0 l 1,9,-1
 287 268 l 1,10,-1
 194 268 l 1,11,-1
 137 0 l 1,12,-1
 32 0 l 1,13,-1
 174 668 l 1,0,-1
463 392.5 m 128,-1,15
 498 426 498 426 498 483 c 0,16,17
 498 528 498 528 465 552.5 c 128,-1,18
 432 577 432 577 375 577 c 2,19,-1
 260 577 l 1,20,-1
 214 359 l 1,21,-1
 362 359 l 2,22,14
 428 359 428 359 463 392.5 c 128,-1,15
EndSplineSet
EndChar
StartChar: S
Encoding: 83 83 77
Width: 632
GlyphClass: 2
Flags: W
AnchorPoint: "Anchor-1" 395 668 basechar 0
AnchorPoint: "Anchor-0" 293 0 basechar 0
LayerCount: 2
Fore
SplineSet
135 32 m 128,-1,1
 65 76 65 76 46 154 c 1,2,-1
 151 189 l 1,3,4
 160 137 160 137 204.5 108.5 c 128,-1,5
 249 80 249 80 308 80 c 0,6,7
 369 80 369 80 409.5 111.5 c 128,-1,8
 450 143 450 143 450 192 c 0,9,10
 450 227 450 227 420 249.5 c 128,-1,11
 390 272 390 272 340 289 c 2,12,-1
 271 313 l 2,13,14
 122 363 122 363 122 477 c 0,15,16
 122 537 122 537 157.5 583 c 128,-1,17
 193 629 193 629 252 654.5 c 128,-1,18
 311 680 311 680 379 680 c 0,19,20
 460 680 460 680 522 645.5 c 128,-1,21
 584 611 584 611 607 545 c 1,22,-1
 502 509 l 1,23,24
 488 546 488 546 450.5 567 c 128,-1,25
 413 588 413 588 367 588 c 0,26,27
 314 588 314 588 275.5 562.5 c 128,-1,28
 237 537 237 537 237 494 c 0,29,30
 237 463 237 463 257 443 c 128,-1,31
 277 423 277 423 316 409 c 2,32,-1
 391 382 l 2,33,34
 479 351 479 351 522.5 311.5 c 128,-1,35
 566 272 566 272 566 211 c 0,36,37
 566 146 566 146 530 95.5 c 128,-1,38
 494 45 494 45 432.5 16.5 c 128,-1,39
 371 -12 371 -12 296 -12 c 0,40,0
 205 -12 205 -12 135 32 c 128,-1,1
EndSplineSet
EndChar
StartChar: T
Encoding: 84 84 83
Width: 632
GlyphClass: 2
Flags: W
AnchorPoint: "Anchor-1" 405 668 basechar 0
AnchorPoint: "Anchor-0" 263 0 basechar 0
LayerCount: 2
Fore
SplineSet
328 569 m 1,0,-1
 124 569 l 1,1,-1
 145 668 l 1,2,-1
 665 668 l 1,3,-1
 644 569 l 1,4,-1
 441 569 l 1,5,-1
 320 0 l 1,6,-1
 207 0 l 1,7,-1
 328 569 l 1,0,-1
EndSplineSet
EndChar
StartChar: W
Encoding: 87 87 97
Width: 632
GlyphClass: 2
Flags: W
AnchorPoint: "Anchor-1" 404 668 basechar 0
AnchorPoint: "Anchor-0" 265 0 basechar 0
LayerCount: 2
Fore
SplineSet
99 668 m 1,0,-1
 189 668 l 1,1,-1
 153 143 l 1,2,-1
 157 143 l 1,3,-1
 352 668 l 1,4,-1
 455 668 l 1,5,-1
 427 143 l 1,6,-1
 431 143 l 1,7,-1
 617 668 l 1,8,-1
 712 668 l 1,9,-1
 456 0 l 1,10,-1
 347 0 l 1,11,-1
 375 517 l 1,12,-1
 371 517 l 1,13,-1
 181 0 l 1,14,-1
 72 0 l 1,15,-1
 99 668 l 1,0,-1
EndSplineSet
EndChar
StartChar: bracketleft
Encoding: 91 91 272
Width: 632
GlyphClass: 1
Flags: W
LayerCount: 2
Fore
SplineSet
286 708 m 1,0,-1
 577 708 l 1,1,-1
 560 626 l 1,2,-1
 365 626 l 1,3,-1
 215 -80 l 1,4,-1
 410 -80 l 1,5,-1
 393 -162 l 1,6,-1
 102 -162 l 1,7,-1
 286 708 l 1,0,-1
EndSplineSet
EndChar
StartChar: bracketright
Encoding: 93 93 273
Width: 632
GlyphClass: 1
Flags: W
LayerCount: 2
Fore
SplineSet
83 -80 m 1,0,-1
 279 -80 l 1,1,-1
 428 626 l 1,2,-1
 233 626 l 1,3,-1
 250 708 l 1,4,-1
 541 708 l 1,5,-1
 357 -162 l 1,6,-1
 66 -162 l 1,7,-1
 83 -80 l 1,0,-1
EndSplineSet
EndChar
StartChar: asciicircum
Encoding: 94 94 325
Width: 632
GlyphClass: 1
Flags: W
LayerCount: 2
Fore
SplineSet
361 668 m 1,0,-1
 448 668 l 1,1,-1
 558 311 l 1,2,-1
 457 311 l 1,3,-1
 385 554 l 1,4,-1
 209 311 l 1,5,-1
 100 311 l 1,6,-1
 361 668 l 1,0,-1
EndSplineSet
EndChar
StartChar: a
Encoding: 97 97 112
Width: 632
GlyphClass: 2
Flags: W
AnchorPoint: "Anchor-2" 490 10 basechar 0
AnchorPoint: "Anchor-1" 366 496 basechar 0
AnchorPoint: "Anchor-0" 261 0 basechar 0
LayerCount: 2
Fore
SplineSet
96 22.5 m 128,-1,1
 48 57 48 57 48 117 c 0,2,3
 48 212 48 212 140 258 c 128,-1,4
 232 304 232 304 432 312 c 1,5,-1
 433 317 l 2,6,7
 436 332 436 332 436 346 c 0,8,9
 436 385 436 385 410.5 408.5 c 128,-1,10
 385 432 385 432 333 432 c 0,11,12
 291 432 291 432 260 412 c 128,-1,13
 229 392 229 392 218 360 c 1,14,-1
 122 393 l 1,15,16
 151 448 151 448 207 478.5 c 128,-1,17
 263 509 263 509 336 509 c 0,18,19
 432 509 432 509 485.5 469.5 c 128,-1,20
 539 430 539 430 539 352 c 0,21,22
 539 322 539 322 532 291 c 2,23,-1
 510 190 l 2,24,25
 485 67 485 67 488 0 c 1,26,-1
 390 0 l 1,27,-1
 387 64 l 1,28,29
 357 28 357 28 312 8 c 128,-1,30
 267 -12 267 -12 215 -12 c 0,31,0
 144 -12 144 -12 96 22.5 c 128,-1,1
349.5 98.5 m 128,-1,33
 393 132 393 132 406 192 c 2,34,-1
 417 242 l 1,35,36
 277 236 277 236 219 207 c 128,-1,37
 161 178 161 178 161 131 c 0,38,39
 161 101 161 101 186 83 c 128,-1,40
 211 65 211 65 251 65 c 0,41,32
 306 65 306 65 349.5 98.5 c 128,-1,33
EndSplineSet
Substitution2: "Single Substitution lookup 14 subtable" ordfeminine
AlternateSubs2: "'aalt' Access All Alternates in Latin lookup 0 subtable" ordfeminine
EndChar
StartChar: b
Encoding: 98 98 123
Width: 632
GlyphClass: 2
Flags: W
AnchorPoint: "Anchor-1" 362 496 basechar 0
AnchorPoint: "Anchor-0" 257 0 basechar 0
LayerCount: 2
Fore
SplineSet
217 13 m 128,-1,1
 174 38 174 38 154 83 c 1,2,-1
 121 0 l 1,3,-1
 27 0 l 1,4,-1
 178 708 l 1,5,-1
 288 708 l 1,6,-1
 227 428 l 1,7,8
 258 465 258 465 304 487 c 128,-1,9
 350 509 350 509 401 509 c 0,10,11
 487 509 487 509 537 451.5 c 128,-1,12
 587 394 587 394 587 301 c 0,13,14
 587 220 587 220 555 148 c 128,-1,15
 523 76 523 76 462 32 c 128,-1,16
 401 -12 401 -12 318 -12 c 0,17,0
 260 -12 260 -12 217 13 c 128,-1,1
398 110.5 m 128,-1,19
 438 145 438 145 456 194.5 c 128,-1,20
 474 244 474 244 474 289 c 0,21,22
 474 348 474 348 443.5 385 c 128,-1,23
 413 422 413 422 357 422 c 0,24,25
 299 422 299 422 259 387 c 128,-1,26
 219 352 219 352 199.5 300.5 c 128,-1,27
 180 249 180 249 180 201 c 0,28,29
 180 143 180 143 210.5 109.5 c 128,-1,30
 241 76 241 76 298 76 c 0,31,18
 358 76 358 76 398 110.5 c 128,-1,19
EndSplineSet
EndChar
StartChar: c
Encoding: 99 99 124
Width: 632
GlyphClass: 2
Flags: W
AnchorPoint: "Anchor-1" 396 496 basechar 0
AnchorPoint: "Anchor-0" 291 0 basechar 0
LayerCount: 2
Fore
SplineSet
148 48 m 128,-1,1
 85 108 85 108 85 208 c 0,2,3
 85 290 85 290 121 359 c 128,-1,4
 157 428 157 428 222.5 468.5 c 128,-1,5
 288 509 288 509 372 509 c 0,6,7
 443 509 443 509 500.5 477.5 c 128,-1,8
 558 446 558 446 582 385 c 1,9,-1
 490 353 l 1,10,11
 476 386 476 386 444 404 c 128,-1,12
 412 422 412 422 373 422 c 0,13,14
 317 422 317 422 277 391.5 c 128,-1,15
 237 361 237 361 217 313 c 128,-1,16
 197 265 197 265 197 213 c 0,17,18
 197 151 197 151 231 113 c 128,-1,19
 265 75 265 75 332 75 c 0,20,21
 372 75 372 75 404 90 c 128,-1,22
 436 105 436 105 453 134 c 1,23,-1
 545 97 l 1,24,25
 510 46 510 46 451.5 17 c 128,-1,26
 393 -12 393 -12 322 -12 c 0,27,0
 211 -12 211 -12 148 48 c 128,-1,1
EndSplineSet
EndChar
StartChar: e
Encoding: 101 101 133
Width: 632
GlyphClass: 2
Flags: W
AnchorPoint: "Anchor-2" 451 3 basechar 0
AnchorPoint: "Anchor-1" 376 495 basechar 0
AnchorPoint: "Anchor-0" 265 1 basechar 0
LayerCount: 2
Fore
SplineSet
180.5 15 m 128,-1,1
 127 42 127 42 98 91.5 c 128,-1,2
 69 141 69 141 69 207 c 0,3,4
 69 288 69 288 105 357.5 c 128,-1,5
 141 427 141 427 206 468 c 128,-1,6
 271 509 271 509 352 509 c 0,7,8
 422 509 422 509 471.5 481 c 128,-1,9
 521 453 521 453 546.5 404 c 128,-1,10
 572 355 572 355 572 293 c 0,11,12
 572 257 572 257 565 225 c 1,13,-1
 175 225 l 1,14,15
 172 153 172 153 209 114 c 128,-1,16
 246 75 246 75 318 75 c 0,17,18
 386 75 386 75 427 122 c 1,19,-1
 516 86 l 1,20,21
 477 39 477 39 423.5 13.5 c 128,-1,22
 370 -12 370 -12 306 -12 c 0,23,0
 234 -12 234 -12 180.5 15 c 128,-1,1
443.5 387 m 128,-1,25
 409 424 409 424 347 424 c 256,26,27
 285 424 285 424 244.5 388 c 128,-1,28
 204 352 204 352 186 295 c 1,29,-1
 474 295 l 1,30,24
 478 350 478 350 443.5 387 c 128,-1,25
EndSplineSet
EndChar
StartChar: l
Encoding: 108 108 163
Width: 632
GlyphClass: 2
Flags: W
AnchorPoint: "Anchor-3" 428 498 basechar 0
AnchorPoint: "Anchor-1" 401 796 basechar 0
AnchorPoint: "Anchor-0" 328 0 basechar 0
LayerCount: 2
Fore
SplineSet
214.5 19.5 m 128,-1,1
 182 39 182 39 182 84 c 0,2,3
 182 106 182 106 188 134 c 2,4,-1
 292 624 l 1,5,-1
 177 624 l 1,6,-1
 194 708 l 1,7,-1
 419 708 l 1,8,-1
 301 151 l 2,9,10
 297 129 297 129 297 123 c 0,11,12
 297 104 297 104 310 96.5 c 128,-1,13
 323 89 323 89 357 89 c 2,14,-1
 523 89 l 1,15,-1
 504 0 l 1,16,-1
 324 0 l 2,17,0
 247 0 247 0 214.5 19.5 c 128,-1,1
EndSplineSet
EndChar
StartChar: n
Encoding: 110 110 168
Width: 632
GlyphClass: 2
Flags: W
AnchorPoint: "Anchor-1" 370 496 basechar 0
AnchorPoint: "Anchor-0" 261 0 basechar 0
LayerCount: 2
Fore
SplineSet
147 496 m 1,0,-1
 241 496 l 1,1,-1
 241 424 l 1,2,3
 268 458 268 458 313.5 483.5 c 128,-1,4
 359 509 359 509 412 509 c 0,5,6
 488 509 488 509 524 471.5 c 128,-1,7
 560 434 560 434 560 369 c 0,8,9
 560 337 560 337 553 305 c 2,10,-1
 488 0 l 1,11,-1
 379 0 l 1,12,-1
 440 287 l 2,13,14
 446 316 446 316 446 339 c 0,15,16
 446 422 446 422 360 422 c 0,17,18
 307 422 307 422 264 378.5 c 128,-1,19
 221 335 221 335 206 261 c 2,20,-1
 151 0 l 1,21,-1
 42 0 l 1,22,-1
 147 496 l 1,0,-1
EndSplineSet
EndChar
StartChar: o
Encoding: 111 111 173
Width: 632
GlyphClass: 2
Flags: W
AnchorPoint: "Anchor-3" 641 496 basechar 0
AnchorPoint: "Anchor-2" 501 10 basechar 0
AnchorPoint: "Anchor-1" 366 496 basechar 0
AnchorPoint: "Anchor-0" 263 0 basechar 0
LayerCount: 2
Fore
SplineSet
169 15.5 m 128,-1,1
 116 43 116 43 86.5 93.5 c 128,-1,2
 57 144 57 144 57 210 c 0,3,4
 57 294 57 294 93.5 362 c 128,-1,5
 130 430 130 430 195 469.5 c 128,-1,6
 260 509 260 509 344 509 c 0,7,8
 411 509 411 509 464 481.5 c 128,-1,9
 517 454 517 454 546.5 403.5 c 128,-1,10
 576 353 576 353 576 287 c 0,11,12
 576 203 576 203 540 135 c 128,-1,13
 504 67 504 67 438.5 27.5 c 128,-1,14
 373 -12 373 -12 289 -12 c 0,15,0
 222 -12 222 -12 169 15.5 c 128,-1,1
387 106.5 m 128,-1,17
 426 138 426 138 445.5 187 c 128,-1,18
 465 236 465 236 465 286 c 0,19,20
 465 347 465 347 434 384.5 c 128,-1,21
 403 422 403 422 339 422 c 0,22,23
 285 422 285 422 246.5 390.5 c 128,-1,24
 208 359 208 359 188.5 310 c 128,-1,25
 169 261 169 261 169 211 c 0,26,27
 169 150 169 150 200 112.5 c 128,-1,28
 231 75 231 75 294 75 c 0,29,16
 348 75 348 75 387 106.5 c 128,-1,17
EndSplineSet
Substitution2: "Single Substitution lookup 14 subtable" ordmasculine
AlternateSubs2: "'aalt' Access All Alternates in Latin lookup 0 subtable" ordmasculine
EndChar
StartChar: p
Encoding: 112 112 182
Width: 632
GlyphClass: 2
Flags: W
AnchorPoint: "Anchor-1" 347 496 basechar 0
AnchorPoint: "Anchor-0" 242 0 basechar 0
LayerCount: 2
Fore
SplineSet
133 496 m 1,0,-1
 226 496 l 1,1,-1
 227 423 l 1,2,3
 261 465 261 465 306.5 487 c 128,-1,4
 352 509 352 509 402 509 c 0,5,6
 488 509 488 509 538 451.5 c 128,-1,7
 588 394 588 394 588 301 c 0,8,9
 588 220 588 220 556 148 c 128,-1,10
 524 76 524 76 463 32 c 128,-1,11
 402 -12 402 -12 319 -12 c 0,12,13
 260 -12 260 -12 217 13.5 c 128,-1,14
 174 39 174 39 155 85 c 1,15,-1
 103 -162 l 1,16,-1
 -6 -162 l 1,17,-1
 133 496 l 1,0,-1
399 110.5 m 128,-1,19
 439 145 439 145 457 194.5 c 128,-1,20
 475 244 475 244 475 289 c 0,21,22
 475 348 475 348 444.5 385 c 128,-1,23
 414 422 414 422 358 422 c 0,24,25
 300 422 300 422 260 387 c 128,-1,26
 220 352 220 352 200.5 300.5 c 128,-1,27
 181 249 181 249 181 201 c 0,28,29
 181 143 181 143 211.5 109.5 c 128,-1,30
 242 76 242 76 299 76 c 0,31,18
 359 76 359 76 399 110.5 c 128,-1,19
EndSplineSet
EndChar
StartChar: r
Encoding: 114 114 185
Width: 632
GlyphClass: 2
Flags: W
AnchorPoint: "Anchor-1" 376 496 basechar 0
AnchorPoint: "Anchor-0" 139 0 basechar 0
LayerCount: 2
Fore
SplineSet
190 496 m 1,0,-1
 275 496 l 1,1,-1
 274 388 l 1,2,3
 323 448 323 448 387.5 477.5 c 128,-1,4
 452 507 452 507 522 507 c 0,5,6
 566 507 566 507 604 497 c 1,7,-1
 581 387 l 1,8,9
 536 404 536 404 479 404 c 0,10,11
 387 404 387 404 322 351.5 c 128,-1,12
 257 299 257 299 236 199 c 2,13,-1
 194 0 l 1,14,-1
 85 0 l 1,15,-1
 190 496 l 1,0,-1
EndSplineSet
EndChar
StartChar: t
Encoding: 116 116 194
Width: 632
GlyphClass: 2
Flags: W
AnchorPoint: "Anchor-3" 416 548 basechar 0
AnchorPoint: "Anchor-1" 340 496 basechar 0
AnchorPoint: "Anchor-0" 286 0 basechar 0
LayerCount: 2
Fore
SplineSet
215.5 19.5 m 128,-1,1
 184 39 184 39 184 87 c 0,2,3
 184 112 184 112 191 143 c 2,4,-1
 248 412 l 1,5,-1
 144 412 l 1,6,-1
 162 496 l 1,7,-1
 266 496 l 1,8,-1
 292 620 l 1,9,-1
 402 620 l 1,10,-1
 376 496 l 1,11,-1
 583 496 l 1,12,-1
 565 412 l 1,13,-1
 357 412 l 1,14,-1
 303 156 l 2,15,16
 299 134 299 134 299 127 c 0,17,18
 299 106 299 106 313 97.5 c 128,-1,19
 327 89 327 89 359 89 c 2,20,-1
 446 89 l 1,21,-1
 427 0 l 1,22,-1
 321 0 l 2,23,0
 247 0 247 0 215.5 19.5 c 128,-1,1
EndSplineSet
EndChar
StartChar: u
Encoding: 117 117 198
Width: 632
GlyphClass: 2
Flags: W
AnchorPoint: "Anchor-3" 621 496 basechar 0
AnchorPoint: "Anchor-2" 483 10 basechar 0
AnchorPoint: "Anchor-1" 362 496 basechar 0
AnchorPoint: "Anchor-0" 257 0 basechar 0
LayerCount: 2
Fore
SplineSet
112.5 25.5 m 128,-1,1
 77 63 77 63 77 128 c 0,2,3
 77 160 77 160 84 192 c 2,4,-1
 149 496 l 1,5,-1
 258 496 l 1,6,-1
 197 209 l 2,7,8
 191 181 191 181 191 157 c 0,9,10
 191 75 191 75 272 75 c 0,11,12
 323 75 323 75 364.5 118.5 c 128,-1,13
 406 162 406 162 421 236 c 2,14,-1
 477 496 l 1,15,-1
 586 496 l 1,16,-1
 481 0 l 1,17,-1
 389 0 l 1,18,-1
 388 75 l 1,19,20
 358 37 358 37 315.5 12.5 c 128,-1,21
 273 -12 273 -12 220 -12 c 0,22,0
 148 -12 148 -12 112.5 25.5 c 128,-1,1
EndSplineSet
EndChar
StartChar: v
Encoding: 118 118 207
Width: 632
GlyphClass: 2
Flags: W
AnchorPoint: "Anchor-1" 370 496 basechar 0
AnchorPoint: "Anchor-0" 264 0 basechar 0
LayerCount: 2
Fore
SplineSet
109 496 m 1,0,-1
 218 496 l 1,1,-1
 284 120 l 1,2,-1
 288 120 l 1,3,-1
 512 496 l 1,4,-1
 630 496 l 1,5,-1
 320 0 l 1,6,-1
 206 0 l 1,7,-1
 109 496 l 1,0,-1
EndSplineSet
EndChar
StartChar: w
Encoding: 119 119 208
Width: 632
GlyphClass: 2
Flags: W
AnchorPoint: "Anchor-1" 366 496 basechar 0
AnchorPoint: "Anchor-0" 263 0 basechar 0
LayerCount: 2
Fore
SplineSet
77 496 m 1,0,-1
 167 496 l 1,1,-1
 167 130 l 1,2,-1
 171 130 l 1,3,-1
 322 496 l 1,4,-1
 412 496 l 1,5,-1
 410 131 l 1,6,-1
 414 131 l 1,7,-1
 567 496 l 1,8,-1
 661 496 l 1,9,-1
 441 0 l 1,10,-1
 344 0 l 1,11,-1
 344 372 l 1,12,-1
 340 372 l 1,13,-1
 183 0 l 1,14,-1
 86 0 l 1,15,-1
 77 496 l 1,0,-1
EndSplineSet
EndChar
StartChar: x
Encoding: 120 120 213
Width: 632
GlyphClass: 2
Flags: W
AnchorPoint: "Anchor-1" 370 496 basechar 0
AnchorPoint: "Anchor-0" 264 0 basechar 0
LayerCount: 2
Fore
SplineSet
256 258 m 1,0,-1
 124 496 l 1,1,-1
 241 496 l 1,2,-1
 330 336 l 1,3,-1
 334 336 l 1,4,-1
 490 496 l 1,5,-1
 615 496 l 1,6,-1
 382 256 l 1,7,-1
 521 0 l 1,8,-1
 403 0 l 1,9,-1
 306 176 l 1,10,-1
 302 176 l 1,11,-1
 132 0 l 1,12,-1
 6 0 l 1,13,-1
 256 258 l 1,0,-1
EndSplineSet
EndChar
StartChar: z
Encoding: 122 122 219
Width: 632
GlyphClass: 2
Flags: W
AnchorPoint: "Anchor-1" 380 496 basechar 0
AnchorPoint: "Anchor-0" 261 0 basechar 0
LayerCount: 2
Fore
SplineSet
53 89 m 1,0,-1
 421 407 l 1,1,-1
 133 407 l 1,2,-1
 152 496 l 1,3,-1
 596 496 l 1,4,-1
 577 407 l 1,5,-1
 209 89 l 1,6,-1
 521 89 l 1,7,-1
 502 0 l 1,8,-1
 34 0 l 1,9,-1
 53 89 l 1,0,-1
EndSplineSet
EndChar
StartChar: braceright
Encoding: 125 125 271
Width: 632
GlyphClass: 1
Flags: W
LayerCount: 2
Fore
SplineSet
78 -76 m 1,0,-1
 200 -76 l 2,1,2
 225 -76 225 -76 235.5 -68.5 c 128,-1,3
 246 -61 246 -61 251 -38 c 2,4,-1
 292 151 l 2,5,6
 305 210 305 210 330 237 c 128,-1,7
 355 264 355 264 401 272 c 1,8,-1
 402 278 l 1,9,10
 371 291 371 291 356 312 c 128,-1,11
 341 333 341 333 341 366 c 0,12,13
 341 389 341 389 347 417 c 2,14,-1
 382 576 l 1,15,-1
 384 592 l 2,16,17
 384 609 384 609 372 616 c 128,-1,18
 360 623 360 623 332 623 c 2,19,-1
 227 623 l 1,20,-1
 245 708 l 1,21,-1
 351 708 l 2,22,23
 426 708 426 708 458 684 c 128,-1,24
 490 660 490 660 490 612 c 0,25,26
 490 590 490 590 484 564 c 2,27,-1
 451 413 l 2,28,29
 446 390 446 390 446 376 c 0,30,31
 446 346 446 346 464 332 c 128,-1,32
 482 318 482 318 523 316 c 1,33,-1
 505 231 l 1,34,35
 467 230 467 230 445.5 221 c 128,-1,36
 424 212 424 212 412.5 192.5 c 128,-1,37
 401 173 401 173 393 136 c 2,38,-1
 354 -44 l 2,39,40
 344 -90 344 -90 327.5 -115.5 c 128,-1,41
 311 -141 311 -141 283 -151.5 c 128,-1,42
 255 -162 255 -162 209 -162 c 2,43,-1
 61 -162 l 1,44,-1
 78 -76 l 1,0,-1
EndSplineSet
EndChar
StartChar: sterling
Encoding: 163 163 307
Width: 632
GlyphClass: 1
Flags: W
LayerCount: 2
Fore
SplineSet
209 280 m 1,1,-1
 207 311 l 1,2,-1
 91 311 l 1,3,-1
 103 369 l 1,4,-1
 195 369 l 1,5,6
 184 409 184 409 178 438 c 128,-1,7
 172 467 172 467 172 492 c 0,8,9
 172 548 172 548 200.5 590.5 c 128,-1,10
 229 633 229 633 281 656.5 c 128,-1,11
 333 680 333 680 401 680 c 0,12,13
 484 680 484 680 546.5 642.5 c 128,-1,14
 609 605 609 605 627 537 c 1,15,-1
 524 506 l 1,16,17
 517 547 517 547 484.5 569 c 128,-1,18
 452 591 452 591 403 591 c 0,19,20
 348 591 348 591 315.5 562.5 c 128,-1,21
 283 534 283 534 283 484 c 0,22,23
 283 462 283 462 289 437.5 c 128,-1,24
 295 413 295 413 308 369 c 1,25,-1
 487 369 l 1,26,-1
 474 311 l 1,27,-1
 320 311 l 1,28,29
 322 301 322 301 322 285 c 0,30,31
 322 227 322 227 287 177 c 128,-1,32
 252 127 252 127 192 94 c 1,33,34
 222 108 222 108 258 108 c 0,35,36
 277 108 277 108 297.5 103.5 c 128,-1,37
 318 99 318 99 337 94 c 0,38,39
 386 79 386 79 418 79 c 0,40,41
 441 79 441 79 464.5 85 c 128,-1,42
 488 91 488 91 523 106 c 1,43,-1
 536 20 l 1,44,45
 495 3 495 3 461.5 -4.5 c 128,-1,46
 428 -12 428 -12 392 -12 c 0,47,48
 368 -12 368 -12 348 -7.5 c 128,-1,49
 328 -3 328 -3 295 7 c 0,50,51
 240 26 240 26 201 26 c 0,52,53
 167 26 167 26 134.5 17.5 c 128,-1,54
 102 9 102 9 62 -11 c 1,55,-1
 40 71 l 1,56,0
 209 150 209 150 209 280 c 1,1,-1
EndSplineSet
EndChar
StartChar: ordfeminine
Encoding: 170 170 223
Width: 632
GlyphClass: 1
Flags: W
LayerCount: 2
Fore
SplineSet
229 358 m 128,-1,1
 196 381 196 381 196 426 c 0,2,3
 196 494 196 494 261.5 522 c 128,-1,4
 327 550 327 550 449 558 c 1,5,-1
 451 579 l 1,6,7
 451 633 451 633 388 633 c 0,8,9
 361 633 361 633 341.5 622 c 128,-1,10
 322 611 322 611 313 590 c 1,11,-1
 245 613 l 1,12,13
 262 650 262 650 300 671.5 c 128,-1,14
 338 693 338 693 391 693 c 0,15,16
 458 693 458 693 494 665 c 128,-1,17
 530 637 530 637 530 582 c 0,18,19
 530 564 530 564 525 539 c 2,20,-1
 507 454 l 2,21,22
 499 420 499 420 496 395 c 128,-1,23
 493 370 493 370 495 343 c 1,24,-1
 423 343 l 1,25,-1
 420 378 l 1,26,27
 379 335 379 335 314 335 c 0,28,0
 262 335 262 335 229 358 c 128,-1,1
399 416.5 m 128,-1,30
 426 439 426 439 433 474 c 2,31,-1
 439 502 l 1,32,33
 358 498 358 498 318 481.5 c 128,-1,34
 278 465 278 465 278 433 c 0,35,36
 278 412 278 412 293.5 403 c 128,-1,37
 309 394 309 394 334 394 c 0,38,29
 372 394 372 394 399 416.5 c 128,-1,30
EndSplineSet
EndChar
StartChar: guillemotleft
Encoding: 171 171 280
Width: 632
GlyphClass: 1
Flags: W
LayerCount: 2
Fore
SplineSet
290 244 m 1,0,-1
 479 460 l 1,1,-1
 607 460 l 1,2,-1
 411 237 l 1,3,-1
 517 40 l 1,4,-1
 401 40 l 1,5,-1
 290 244 l 1,0,-1
71 250 m 1,6,-1
 260 460 l 1,7,-1
 388 460 l 1,8,-1
 192 244 l 1,9,-1
 298 40 l 1,10,-1
 182 40 l 1,11,-1
 71 250 l 1,6,-1
EndSplineSet
EndChar
StartChar: logicalnot
Encoding: 172 172 323
Width: 632
GlyphClass: 1
Flags: W
LayerCount: 2
Fore
SplineSet
483 310 m 1,0,-1
 79 310 l 1,1,-1
 99 405 l 1,2,-1
 600 405 l 1,3,-1
 531 79 l 1,4,-1
 434 79 l 1,5,-1
 483 310 l 1,0,-1
EndSplineSet
EndChar
StartChar: plusminus
Encoding: 177 177 321
Width: 632
GlyphClass: 1
Flags: W
LayerCount: 2
Fore
SplineSet
276 279 m 1,0,-1
 74 279 l 1,1,-1
 92 361 l 1,2,-1
 294 361 l 1,3,-1
 323 496 l 1,4,-1
 416 496 l 1,5,-1
 387 361 l 1,6,-1
 589 361 l 1,7,-1
 571 279 l 1,8,-1
 370 279 l 1,9,-1
 342 146 l 1,10,-1
 248 146 l 1,11,-1
 276 279 l 1,0,-1
35 95 m 1,12,-1
 532 95 l 1,13,-1
 512 0 l 1,14,-1
 15 0 l 1,15,-1
 35 95 l 1,12,-1
EndSplineSet
EndChar
StartChar: uni00B9
Encoding: 185 185 244
Width: 632
GlyphClass: 1
Flags: W
LayerCount: 2
Fore
SplineSet
421 670 m 1,0,-1
 330 670 l 1,1,-1
 342 726 l 1,2,3
 389 724 389 724 415.5 736 c 128,-1,4
 442 748 442 748 459 779 c 1,5,-1
 522 779 l 1,6,-1
 434 364 l 1,7,-1
 357 364 l 1,8,-1
 421 670 l 1,0,-1
EndSplineSet
EndChar
StartChar: ordmasculine
Encoding: 186 186 224
Width: 632
GlyphClass: 1
Flags: W
LayerCount: 2
Fore
SplineSet
242.5 374.5 m 128,-1,1
 199 414 199 414 199 483 c 0,2,3
 199 537 199 537 222 585 c 128,-1,4
 245 633 245 633 289 663 c 128,-1,5
 333 693 333 693 392 693 c 0,6,7
 460 693 460 693 503.5 653.5 c 128,-1,8
 547 614 547 614 547 545 c 0,9,10
 547 491 547 491 524 443 c 128,-1,11
 501 395 501 395 457 365 c 128,-1,12
 413 335 413 335 354 335 c 0,13,0
 286 335 286 335 242.5 374.5 c 128,-1,1
417 423.5 m 128,-1,15
 441 447 441 447 452 480 c 128,-1,16
 463 513 463 513 463 541 c 0,17,18
 463 581 463 581 444 605 c 128,-1,19
 425 629 425 629 390 629 c 0,20,21
 354 629 354 629 329.5 605.5 c 128,-1,22
 305 582 305 582 294 548.5 c 128,-1,23
 283 515 283 515 283 487 c 0,24,25
 283 447 283 447 302 423.5 c 128,-1,26
 321 400 321 400 356 400 c 0,27,14
 393 400 393 400 417 423.5 c 128,-1,15
EndSplineSet
EndChar
StartChar: guillemotright
Encoding: 187 187 281
Width: 632
GlyphClass: 1
Flags: W
LayerCount: 2
Fore
SplineSet
441 257 m 1,0,-1
 335 460 l 1,1,-1
 451 460 l 1,2,-1
 562 250 l 1,3,-1
 373 40 l 1,4,-1
 245 40 l 1,5,-1
 441 257 l 1,0,-1
222 263 m 1,6,-1
 116 460 l 1,7,-1
 232 460 l 1,8,-1
 343 257 l 1,9,-1
 154 40 l 1,10,-1
 26 40 l 1,11,-1
 222 263 l 1,6,-1
EndSplineSet
EndChar
StartChar: threequarters
Encoding: 190 190 243
Width: 632
GlyphClass: 3
Flags: W
LayerCount: 2
Fore
SplineSet
548 668 m 1,0,-1
 642 668 l 1,1,-1
 144 0 l 1,2,-1
 50 0 l 1,3,-1
 548 668 l 1,0,-1
458 61 m 1,4,-1
 302 61 l 1,5,-1
 315 123 l 1,6,-1
 503 308 l 1,7,-1
 580 308 l 1,8,-1
 542 125 l 1,9,-1
 589 125 l 1,10,-1
 575 61 l 1,11,-1
 528 61 l 1,12,-1
 515 0 l 1,13,-1
 445 0 l 1,14,-1
 458 61 l 1,4,-1
472 125 m 1,15,-1
 492 219 l 1,16,-1
 490 219 l 1,17,-1
 396 125 l 1,18,-1
 472 125 l 1,15,-1
107 380 m 128,-1,20
 73 397 73 397 62 433 c 1,21,-1
 132 455 l 1,22,23
 139 421 139 421 182 421 c 0,24,25
 203 421 203 421 216.5 432 c 128,-1,26
 230 443 230 443 230 461 c 0,27,28
 230 497 230 497 160 494 c 1,29,-1
 174 556 l 1,30,31
 181 555 181 555 193 555 c 0,32,33
 222 555 222 555 237 565 c 128,-1,34
 252 575 252 575 252 594 c 0,35,36
 252 607 252 607 241 615 c 128,-1,37
 230 623 230 623 214 623 c 0,38,39
 177 623 177 623 160 593 c 1,40,-1
 94 618 l 1,41,42
 130 680 130 680 216 680 c 0,43,44
 263 680 263 680 295.5 658.5 c 128,-1,45
 328 637 328 637 328 600 c 0,46,47
 328 576 328 576 312 553.5 c 128,-1,48
 296 531 296 531 272 522 c 1,49,50
 288 514 288 514 297.5 498.5 c 128,-1,51
 307 483 307 483 307 465 c 0,52,53
 307 421 307 421 270.5 392 c 128,-1,54
 234 363 234 363 181 363 c 0,55,19
 141 363 141 363 107 380 c 128,-1,20
EndSplineSet
Ligature2: "'frac' Diagonal Fractions in Latin lookup 7 subtable" three slash four
EndChar
StartChar: Oslash
Encoding: 216 216 68
Width: 632
GlyphClass: 2
Flags: W
AnchorPoint: "Anchor-3" 708 668 basechar 0
AnchorPoint: "Anchor-2" 521 10 basechar 0
AnchorPoint: "Anchor-1" 406 668 basechar 0
AnchorPoint: "Anchor-0" 264 0 basechar 0
LayerCount: 2
Fore
SplineSet
115 58 m 1,1,-1
 52 -8 l 1,2,-1
 9 31 l 1,3,-1
 81 107 l 1,4,5
 51 169 51 169 51 254 c 0,6,7
 51 353 51 353 88 451.5 c 128,-1,8
 125 550 125 550 199 615 c 128,-1,9
 273 680 273 680 379 680 c 0,10,11
 493 680 493 680 555 610 c 1,12,-1
 617 675 l 1,13,-1
 661 637 l 1,14,-1
 588 561 l 1,15,16
 618 498 618 498 618 415 c 0,17,18
 618 316 618 316 581 217 c 128,-1,19
 544 118 544 118 470 53 c 128,-1,20
 396 -12 396 -12 290 -12 c 0,21,0
 175 -12 175 -12 115 58 c 1,1,-1
413 134.5 m 128,-1,23
 461 189 461 189 484.5 267 c 128,-1,24
 508 345 508 345 508 412 c 0,25,26
 508 443 508 443 501 464 c 1,27,-1
 187 137 l 1,28,29
 221 80 221 80 295 80 c 0,30,22
 365 80 365 80 413 134.5 c 128,-1,23
374 589 m 0,32,33
 304 589 304 589 255.5 534 c 128,-1,34
 207 479 207 479 184 401 c 128,-1,35
 161 323 161 323 160 256 c 0,36,37
 160 227 160 227 168 203 c 1,38,-1
 482 531 l 1,39,31
 447 589 447 589 374 589 c 0,32,33
EndSplineSet
EndChar
StartChar: germandbls
Encoding: 223 223 193
Width: 632
GlyphClass: 1
Flags: W
LayerCount: 2
Fore
SplineSet
249 -3 m 1,1,-1
 241 92 l 1,2,3
 262 85 262 85 285.5 81.5 c 128,-1,4
 309 78 309 78 326 78 c 0,5,6
 398 78 398 78 439.5 119 c 128,-1,7
 481 160 481 160 481 223 c 0,8,9
 481 283 481 283 433 319 c 128,-1,10
 385 355 385 355 316 355 c 2,11,-1
 313 355 l 1,12,-1
 331 443 l 1,13,14
 338 442 338 442 353 442 c 0,15,16
 403 442 403 442 438 462.5 c 128,-1,17
 473 483 473 483 473 526 c 0,18,19
 473 560 473 560 440 578 c 128,-1,20
 407 596 407 596 364 596 c 0,21,22
 311 596 311 596 278.5 567 c 128,-1,23
 246 538 246 538 231 473 c 2,24,-1
 131 0 l 1,25,-1
 21 0 l 1,26,-1
 125 489 l 2,27,28
 166 680 166 680 358 680 c 0,29,30
 447 680 447 680 507.5 641.5 c 128,-1,31
 568 603 568 603 568 535 c 0,32,33
 568 491 568 491 542 454 c 128,-1,34
 516 417 516 417 470 395 c 1,35,36
 531 374 531 374 561.5 328 c 128,-1,37
 592 282 592 282 592 225 c 0,38,39
 592 163 592 163 563 108.5 c 128,-1,40
 534 54 534 54 475.5 20.5 c 128,-1,41
 417 -13 417 -13 333 -13 c 0,42,0
 289 -13 289 -13 249 -3 c 1,1,-1
EndSplineSet
EndChar
StartChar: ae
Encoding: 230 230 122
Width: 632
GlyphClass: 2
Flags: W
AnchorPoint: "Anchor-1" 369 496 basechar 0
AnchorPoint: "Anchor-0" 263 0 basechar 0
LayerCount: 2
Fore
SplineSet
22.5 21.5 m 128,-1,1
 -13 55 -13 55 -13 110 c 0,2,3
 -13 195 -13 195 53 241.5 c 128,-1,4
 119 288 119 288 271 292 c 1,5,-1
 275 313 l 2,6,7
 281 339 281 339 281 363 c 0,8,9
 281 433 281 433 221 433 c 0,10,11
 165 433 165 433 134 359 c 1,12,-1
 61 392 l 1,13,14
 89 448 89 448 132.5 478.5 c 128,-1,15
 176 509 176 509 233 509 c 0,16,17
 279 509 279 509 308 488 c 128,-1,18
 337 467 337 467 348 429 c 1,19,20
 376 468 376 468 412 488.5 c 128,-1,21
 448 509 448 509 490 509 c 0,22,23
 562 509 562 509 596 458 c 128,-1,24
 630 407 630 407 630 327 c 0,25,26
 630 276 630 276 618 226 c 1,27,-1
 334 226 l 1,28,29
 331 207 331 207 331 187 c 0,30,31
 331 131 331 131 353.5 97.5 c 128,-1,32
 376 64 376 64 417 64 c 0,33,34
 466 64 466 64 506 119 c 1,35,-1
 577 89 l 1,36,37
 503 -12 503 -12 407 -12 c 0,38,39
 351 -12 351 -12 316.5 13.5 c 128,-1,40
 282 39 282 39 268 85 c 1,41,42
 211 -12 211 -12 115 -12 c 0,43,0
 58 -12 58 -12 22.5 21.5 c 128,-1,1
206 93.5 m 128,-1,45
 237 124 237 124 250 189 c 2,46,-1
 257 226 l 1,47,48
 154 222 154 222 113 196.5 c 128,-1,49
 72 171 72 171 72 125 c 0,50,51
 72 96 72 96 89.5 79.5 c 128,-1,52
 107 63 107 63 137 63 c 0,53,44
 175 63 175 63 206 93.5 c 128,-1,45
547 334 m 0,55,56
 547 377 547 377 529.5 404 c 128,-1,57
 512 431 512 431 474 431 c 0,58,59
 429 431 429 431 397 391.5 c 128,-1,60
 365 352 365 352 347 292 c 1,61,-1
 543 292 l 1,62,54
 547 311 547 311 547 334 c 0,55,56
EndSplineSet
EndChar
StartChar: ccedilla
Encoding: 231 231 127
Width: 632
GlyphClass: 2
Flags: W
AnchorPoint: "Anchor-1" 396 496 basechar 0
LayerCount: 2
Fore
SplineSet
166 -157 m 1,1,-1
 188 -120 l 1,2,3
 202 -130 202 -130 219.5 -135 c 128,-1,4
 237 -140 237 -140 253 -140 c 0,5,6
 272 -140 272 -140 284 -131 c 128,-1,7
 296 -122 296 -122 296 -107 c 0,8,9
 296 -95 296 -95 286.5 -88 c 128,-1,10
 277 -81 277 -81 261 -81 c 2,11,-1
 232 -83 l 2,12,13
 224 -83 224 -83 219.5 -79 c 128,-1,14
 215 -75 215 -75 215 -69 c 0,15,16
 215 -60 215 -60 222 -52 c 2,17,-1
 260 -6 l 1,18,19
 177 10 177 10 131 67 c 128,-1,20
 85 124 85 124 85 208 c 0,21,22
 85 290 85 290 121 359 c 128,-1,23
 157 428 157 428 222.5 468.5 c 128,-1,24
 288 509 288 509 372 509 c 0,25,26
 443 509 443 509 500.5 477.5 c 128,-1,27
 558 446 558 446 582 385 c 1,28,-1
 490 353 l 1,29,30
 476 386 476 386 444 404 c 128,-1,31
 412 422 412 422 373 422 c 0,32,33
 317 422 317 422 277 391.5 c 128,-1,34
 237 361 237 361 217 313 c 128,-1,35
 197 265 197 265 197 213 c 0,36,37
 197 151 197 151 231 113 c 128,-1,38
 265 75 265 75 332 75 c 0,39,40
 372 75 372 75 404 90 c 128,-1,41
 436 105 436 105 453 134 c 1,42,-1
 545 97 l 1,43,44
 508 45 508 45 447 15 c 128,-1,45
 386 -15 386 -15 304 -11 c 1,46,-1
 274 -47 l 1,47,48
 280 -45 280 -45 292 -45 c 0,49,50
 324 -45 324 -45 346 -60.5 c 128,-1,51
 368 -76 368 -76 368 -102 c 0,52,53
 368 -140 368 -140 338 -161 c 128,-1,54
 308 -182 308 -182 262 -182 c 0,55,0
 208 -182 208 -182 166 -157 c 1,1,-1
EndSplineSet
EndChar
StartChar: eth
Encoding: 240 240 132
Width: 632
GlyphClass: 1
Flags: W
LayerCount: 2
Fore
SplineSet
161 13.5 m 128,-1,1
 108 39 108 39 78 86.5 c 128,-1,2
 48 134 48 134 48 197 c 0,3,4
 48 268 48 268 81.5 328 c 128,-1,5
 115 388 115 388 175 423.5 c 128,-1,6
 235 459 235 459 309 459 c 0,7,8
 371 459 371 459 418.5 432 c 128,-1,9
 466 405 466 405 487 355 c 1,10,11
 495 399 495 399 495 433 c 0,12,13
 495 513 495 513 455 566 c 1,14,-1
 386 509 l 1,15,-1
 352 552 l 1,16,-1
 415 603 l 1,17,18
 392 622 392 622 356 635.5 c 128,-1,19
 320 649 320 649 275 651 c 1,20,-1
 292 736 l 1,21,22
 412 728 412 728 489 666 c 1,23,-1
 559 723 l 1,24,-1
 594 680 l 1,25,-1
 531 629 l 1,26,27
 596 553 596 553 596 423 c 0,28,29
 596 326 596 326 564 226 c 128,-1,30
 532 126 532 126 461.5 57 c 128,-1,31
 391 -12 391 -12 281 -12 c 0,32,0
 214 -12 214 -12 161 13.5 c 128,-1,1
372 97.5 m 128,-1,34
 409 122 409 122 429 162 c 128,-1,35
 449 202 449 202 449 248 c 0,36,37
 449 302 449 302 415 338 c 128,-1,38
 381 374 381 374 321 374 c 0,39,40
 272 374 272 374 235 349.5 c 128,-1,41
 198 325 198 325 179 285 c 128,-1,42
 160 245 160 245 160 200 c 0,43,44
 160 143 160 143 193.5 108 c 128,-1,45
 227 73 227 73 288 73 c 0,46,33
 335 73 335 73 372 97.5 c 128,-1,34
EndSplineSet
EndChar
StartChar: oslash
Encoding: 248 248 179
Width: 632
GlyphClass: 2
Flags: W
AnchorPoint: "Anchor-3" 641 496 basechar 0
AnchorPoint: "Anchor-2" 501 10 basechar 0
AnchorPoint: "Anchor-1" 366 496 basechar 0
AnchorPoint: "Anchor-0" 263 0 basechar 0
LayerCount: 2
Fore
SplineSet
201 2.5 m 128,-1,1
 160 17 160 17 130 44 c 1,2,-1
 64 -15 l 1,3,-1
 26 28 l 1,4,-1
 91 86 l 1,5,6
 57 139 57 139 57 210 c 0,7,8
 57 294 57 294 93.5 362 c 128,-1,9
 130 430 130 430 195 469.5 c 128,-1,10
 260 509 260 509 344 509 c 0,11,12
 391 509 391 509 432 495 c 128,-1,13
 473 481 473 481 503 454 c 1,14,-1
 567 512 l 1,15,-1
 606 469 l 1,16,-1
 541 412 l 1,17,18
 576 360 576 360 576 287 c 0,19,20
 576 203 576 203 540 135 c 128,-1,21
 504 67 504 67 438.5 27.5 c 128,-1,22
 373 -12 373 -12 289 -12 c 0,23,0
 242 -12 242 -12 201 2.5 c 128,-1,1
387 106.5 m 128,-1,25
 426 138 426 138 445.5 187 c 128,-1,26
 465 236 465 236 465 286 c 0,27,28
 465 313 465 313 455 333 c 1,29,-1
 203 110 l 1,30,31
 236 75 236 75 294 75 c 0,32,24
 348 75 348 75 387 106.5 c 128,-1,25
339 422 m 0,34,35
 285 422 285 422 246.5 390.5 c 128,-1,36
 208 359 208 359 188.5 310 c 128,-1,37
 169 261 169 261 169 211 c 0,38,39
 169 186 169 186 177 165 c 1,40,-1
 430 388 l 1,41,33
 398 422 398 422 339 422 c 0,34,35
EndSplineSet
EndChar
StartChar: dcroat
Encoding: 273 273 131
Width: 632
GlyphClass: 1
Flags: W
LayerCount: 2
Fore
SplineSet
96 45.5 m 128,-1,1
 46 103 46 103 46 196 c 0,2,3
 46 277 46 277 78 349 c 128,-1,4
 110 421 110 421 171.5 465 c 128,-1,5
 233 509 233 509 316 509 c 0,6,7
 374 509 374 509 417 483.5 c 128,-1,8
 460 458 460 458 478 410 c 1,9,-1
 508 553 l 1,10,-1
 356 553 l 1,11,-1
 369 613 l 1,12,-1
 521 613 l 1,13,-1
 542 708 l 1,14,-1
 651 708 l 1,15,-1
 631 613 l 1,16,-1
 691 613 l 1,17,-1
 678 553 l 1,18,-1
 618 553 l 1,19,-1
 540 189 l 2,20,21
 519 90 519 90 517 0 c 1,22,-1
 413 0 l 1,23,-1
 408 72 l 1,24,25
 373 31 373 31 327 9.5 c 128,-1,26
 281 -12 281 -12 232 -12 c 0,27,0
 146 -12 146 -12 96 45.5 c 128,-1,1
373 110.5 m 128,-1,29
 413 145 413 145 432.5 196 c 128,-1,30
 452 247 452 247 452 296 c 0,31,32
 452 355 452 355 422 388.5 c 128,-1,33
 392 422 392 422 334 422 c 0,34,35
 274 422 274 422 234.5 387.5 c 128,-1,36
 195 353 195 353 177 303 c 128,-1,37
 159 253 159 253 159 208 c 0,38,39
 159 149 159 149 190 112.5 c 128,-1,40
 221 76 221 76 276 76 c 0,41,28
 333 76 333 76 373 110.5 c 128,-1,29
EndSplineSet
EndChar
StartChar: uni0123
Encoding: 291 291 145
Width: 632
GlyphClass: 2
Flags: W
AnchorPoint: "Anchor-1" 437 764 basechar 0
AnchorPoint: "Anchor-0" 216 -251 basechar 0
LayerCount: 2
Fore
SplineSet
121.5 -166.5 m 128,-1,1
 59 -138 59 -138 40 -78 c 1,2,-1
 133 -44 l 1,3,4
 146 -78 146 -78 183.5 -93.5 c 128,-1,5
 221 -109 221 -109 264 -109 c 0,6,7
 312 -109 312 -109 346.5 -84.5 c 128,-1,8
 381 -60 381 -60 392 -8 c 2,9,-1
 413 86 l 1,10,11
 334 12 334 12 239 12 c 0,12,13
 181 12 181 12 139 39.5 c 128,-1,14
 97 67 97 67 75.5 114 c 128,-1,15
 54 161 54 161 54 218 c 0,16,17
 54 295 54 295 86.5 362 c 128,-1,18
 119 429 119 429 178.5 469 c 128,-1,19
 238 509 238 509 317 509 c 0,20,21
 370 509 370 509 415 484 c 128,-1,22
 460 459 460 459 480 414 c 1,23,-1
 516 496 l 1,24,-1
 608 496 l 1,25,-1
 502 -5 l 2,26,27
 482 -101 482 -101 419 -148 c 128,-1,28
 356 -195 356 -195 259 -195 c 0,29,0
 184 -195 184 -195 121.5 -166.5 c 128,-1,1
390.5 139.5 m 128,-1,31
 435 179 435 179 450 252 c 0,32,33
 455 273 455 273 455 301 c 0,34,35
 455 357 455 357 424.5 389.5 c 128,-1,36
 394 422 394 422 336 422 c 0,37,38
 281 422 281 422 242.5 393.5 c 128,-1,39
 204 365 204 365 185.5 320.5 c 128,-1,40
 167 276 167 276 167 228 c 0,41,42
 167 172 167 172 198 136 c 128,-1,43
 229 100 229 100 287 100 c 0,44,30
 346 100 346 100 390.5 139.5 c 128,-1,31
325 650 m 0,46,47
 325 687 325 687 349 714 c 128,-1,48
 373 741 373 741 409.5 754 c 128,-1,49
 446 767 446 767 484 764 c 1,50,-1
 518 724 l 1,51,52
 477 726 477 726 444 708.5 c 128,-1,53
 411 691 411 691 411 652 c 0,54,55
 411 619 411 619 447 599 c 1,56,-1
 374 572 l 1,57,45
 325 604 325 604 325 650 c 0,46,47
EndSplineSet
EndChar
StartChar: hbar
Encoding: 295 295 148
Width: 632
GlyphClass: 1
Flags: W
LayerCount: 2
Fore
SplineSet
160 553 m 1,0,-1
 100 553 l 1,1,-1
 113 613 l 1,2,-1
 173 613 l 1,3,-1
 193 708 l 1,4,-1
 303 708 l 1,5,-1
 282 613 l 1,6,-1
 435 613 l 1,7,-1
 422 553 l 1,8,-1
 270 553 l 1,9,-1
 243 426 l 1,10,11
 269 457 269 457 315 483 c 128,-1,12
 361 509 361 509 414 509 c 0,13,14
 489 509 489 509 525.5 471.5 c 128,-1,15
 562 434 562 434 562 368 c 0,16,17
 562 336 562 336 555 305 c 2,18,-1
 490 0 l 1,19,-1
 380 0 l 1,20,-1
 441 287 l 2,21,22
 447 316 447 316 447 339 c 0,23,24
 447 422 447 422 362 422 c 0,25,26
 309 422 309 422 266.5 378.5 c 128,-1,27
 224 335 224 335 208 261 c 2,28,-1
 153 0 l 1,29,-1
 43 0 l 1,30,-1
 160 553 l 1,0,-1
EndSplineSet
EndChar
StartChar: dotlessi
Encoding: 305 305 150
Width: 632
GlyphClass: 2
Flags: W
AnchorPoint: "Anchor-2" 508 10 basechar 0
AnchorPoint: "Anchor-1" 375 496 basechar 0
AnchorPoint: "Anchor-0" 252 0 basechar 0
LayerCount: 2
Fore
SplineSet
73 84 m 1,0,-1
 244 84 l 1,1,-1
 313 412 l 1,2,-1
 167 412 l 1,3,-1
 186 496 l 1,4,-1
 441 496 l 1,5,-1
 353 84 l 1,6,-1
 524 84 l 1,7,-1
 506 0 l 1,8,-1
 54 0 l 1,9,-1
 73 84 l 1,0,-1
EndSplineSet
EndChar
StartChar: ij
Encoding: 307 307 157
Width: 632
GlyphClass: 1
Flags: W
LayerCount: 2
Fore
SplineSet
229 -72 m 1,0,-1
 302 -72 l 2,1,2
 329 -72 329 -72 342 -68 c 128,-1,3
 355 -64 355 -64 363 -50 c 128,-1,4
 371 -36 371 -36 378 -5 c 2,5,-1
 467 412 l 1,6,-1
 401 412 l 1,7,-1
 419 496 l 1,8,-1
 594 496 l 1,9,-1
 483 -25 l 2,10,11
 471 -83 471 -83 449.5 -112 c 128,-1,12
 428 -141 428 -141 394.5 -151 c 128,-1,13
 361 -161 361 -161 304 -161 c 2,14,-1
 210 -161 l 1,15,-1
 229 -72 l 1,0,-1
166 412 m 1,16,-1
 101 412 l 1,17,-1
 118 496 l 1,18,-1
 293 496 l 1,19,-1
 188 0 l 1,20,-1
 78 0 l 1,21,-1
 166 412 l 1,16,-1
212 609 m 128,-1,23
 191 630 191 630 191 659 c 0,24,25
 191 689 191 689 212 710 c 128,-1,26
 233 731 233 731 263 731 c 0,27,28
 292 731 292 731 313 710 c 128,-1,29
 334 689 334 689 334 659 c 0,30,31
 334 630 334 630 313 609 c 128,-1,32
 292 588 292 588 263 588 c 0,33,22
 233 588 233 588 212 609 c 128,-1,23
513 609 m 128,-1,35
 492 630 492 630 492 659 c 0,36,37
 492 689 492 689 513 710 c 128,-1,38
 534 731 534 731 563 731 c 0,39,40
 593 731 593 731 614 710 c 128,-1,41
 635 689 635 689 635 659 c 0,42,43
 635 630 635 630 614 609 c 128,-1,44
 593 588 593 588 563 588 c 0,45,34
 534 588 534 588 513 609 c 128,-1,35
EndSplineSet
EndChar
StartChar: lslash
Encoding: 322 322 166
Width: 632
GlyphClass: 1
Flags: W
LayerCount: 2
Fore
SplineSet
214.5 19.5 m 128,-1,1
 182 39 182 39 182 84 c 0,2,3
 182 106 182 106 188 134 c 2,4,-1
 215 262 l 1,5,-1
 147 227 l 1,6,-1
 166 314 l 1,7,-1
 234 350 l 1,8,-1
 292 624 l 1,9,-1
 177 624 l 1,10,-1
 194 708 l 1,11,-1
 419 708 l 1,12,-1
 356 411 l 1,13,-1
 480 475 l 1,14,-1
 461 387 l 1,15,-1
 337 323 l 1,16,-1
 301 151 l 2,17,18
 297 129 297 129 297 123 c 0,19,20
 297 104 297 104 310 96.5 c 128,-1,21
 323 89 323 89 357 89 c 2,22,-1
 523 89 l 1,23,-1
 504 0 l 1,24,-1
 324 0 l 2,25,0
 247 0 247 0 214.5 19.5 c 128,-1,1
EndSplineSet
EndChar
StartChar: uni0163
Encoding: 355 355 196
Width: 632
GlyphClass: 2
Flags: W
AnchorPoint: "Anchor-3" 416 548 basechar 0
AnchorPoint: "Anchor-1" 340 496 basechar 0
LayerCount: 2
Fore
SplineSet
161 -157 m 1,1,-1
 183 -120 l 1,2,3
 212 -140 212 -140 249 -140 c 0,4,5
 267 -140 267 -140 279.5 -131 c 128,-1,6
 292 -122 292 -122 292 -107 c 0,7,8
 292 -95 292 -95 282 -88 c 128,-1,9
 272 -81 272 -81 256 -81 c 2,10,-1
 227 -83 l 2,11,12
 219 -83 219 -83 214.5 -79 c 128,-1,13
 210 -75 210 -75 210 -69 c 256,14,15
 210 -63 210 -63 217 -52 c 2,16,-1
 264 4 l 1,17,18
 221 10 221 10 202.5 29.5 c 128,-1,19
 184 49 184 49 184 87 c 0,20,21
 184 112 184 112 191 143 c 2,22,-1
 248 412 l 1,23,-1
 144 412 l 1,24,-1
 162 496 l 1,25,-1
 266 496 l 1,26,-1
 292 620 l 1,27,-1
 402 620 l 1,28,-1
 376 496 l 1,29,-1
 583 496 l 1,30,-1
 565 412 l 1,31,-1
 357 412 l 1,32,-1
 303 156 l 2,33,34
 299 134 299 134 299 127 c 0,35,36
 299 106 299 106 313 97.5 c 128,-1,37
 327 89 327 89 359 89 c 2,38,-1
 446 89 l 1,39,-1
 427 0 l 1,40,-1
 309 0 l 1,41,-1
 269 -47 l 1,42,43
 275 -45 275 -45 287 -45 c 0,44,45
 319 -45 319 -45 341.5 -60.5 c 128,-1,46
 364 -76 364 -76 364 -102 c 0,47,48
 364 -140 364 -140 333.5 -161 c 128,-1,49
 303 -182 303 -182 257 -182 c 0,50,0
 203 -182 203 -182 161 -157 c 1,1,-1
EndSplineSet
Substitution2: "'locl' Localized Forms in Latin lookup 4 subtable" uni021B
AlternateSubs2: "'aalt' Access All Alternates in Latin lookup 0 subtable" uni021B
EndChar
StartChar: Uogonek
Encoding: 370 370 94
Width: 632
GlyphClass: 2
Flags: W
AnchorPoint: "Anchor-3" 725 668 basechar 0
AnchorPoint: "Anchor-1" 402 668 basechar 0
LayerCount: 2
Fore
SplineSet
301.5 -151.5 m 128,-1,1
 265 -132 265 -132 265 -93 c 0,2,3
 265 -53 265 -53 308 -10 c 1,4,5
 185 -11 185 -11 124.5 40 c 128,-1,6
 64 91 64 91 64 190 c 0,7,8
 64 230 64 230 75 282 c 2,9,-1
 157 668 l 1,10,-1
 270 668 l 1,11,-1
 183 257 l 2,12,13
 175 220 175 220 175 195 c 0,14,15
 175 81 175 81 302 81 c 0,16,17
 363 81 363 81 397 118 c 128,-1,18
 431 155 431 155 447 228 c 2,19,-1
 540 668 l 1,20,-1
 653 668 l 1,21,-1
 561 230 l 2,22,23
 526 65 526 65 424 13 c 0,24,25
 396 -1 396 -1 377.5 -25.5 c 128,-1,26
 359 -50 359 -50 359 -73 c 0,27,28
 359 -92 359 -92 372.5 -101.5 c 128,-1,29
 386 -111 386 -111 409 -111 c 0,30,31
 427 -111 427 -111 443 -107 c 1,32,-1
 430 -167 l 1,33,34
 410 -171 410 -171 395 -171 c 0,35,0
 338 -171 338 -171 301.5 -151.5 c 128,-1,1
EndSplineSet
EndChar
StartChar: gravecomb
Encoding: 768 768 340
Width: 0
GlyphClass: 4
Flags: W
AnchorPoint: "Anchor-5" 461 714 basemark 0
AnchorPoint: "Anchor-5" 415 496 mark 0
AnchorPoint: "Anchor-1" 415 496 mark 0
LayerCount: 2
Fore
SplineSet
316 664 m 0,1,2
 316 683 316 683 330.5 698.5 c 128,-1,3
 345 714 345 714 364 714 c 0,4,5
 376 714 376 714 384 706.5 c 128,-1,6
 392 699 392 699 402 681 c 2,7,-1
 466 572 l 1,8,-1
 390 572 l 1,9,-1
 342 618 l 2,10,0
 316 644 316 644 316 664 c 0,1,2
EndSplineSet
Substitution2: "Single Substitution lookup 12 subtable" gravecomb.case
Substitution2: "'case' Case-Sensitive Forms in Latin lookup 9 subtable" gravecomb.case
AlternateSubs2: "'aalt' Access All Alternates in Latin lookup 0 subtable" gravecomb.case
EndChar
StartChar: uni0302
Encoding: 770 770 347
Width: 0
GlyphClass: 4
Flags: W
AnchorPoint: "Anchor-5" 414 706 basemark 0
AnchorPoint: "Anchor-5" 369 496 mark 0
AnchorPoint: "Anchor-1" 369 496 mark 0
LayerCount: 2
Fore
SplineSet
414 706 m 0,1,2
 439 706 439 706 457 685 c 2,3,-1
 549 575 l 1,4,-1
 459 575 l 1,5,-1
 403 636 l 1,6,-1
 321 575 l 1,7,-1
 222 575 l 1,8,-1
 362 685 l 2,9,0
 388 706 388 706 414 706 c 0,1,2
EndSplineSet
Substitution2: "Single Substitution lookup 12 subtable" uni0302.case
Substitution2: "'case' Case-Sensitive Forms in Latin lookup 9 subtable" uni0302.case
AlternateSubs2: "'aalt' Access All Alternates in Latin lookup 0 subtable" uni0302.case
EndChar
StartChar: tildecomb
Encoding: 771 771 355
Width: 0
GlyphClass: 4
Flags: W
AnchorPoint: "Anchor-5" 407 675 basemark 0
AnchorPoint: "Anchor-5" 369 496 mark 0
AnchorPoint: "Anchor-1" 369 496 mark 0
LayerCount: 2
Fore
SplineSet
415.5 578 m 128,-1,1
 400 584 400 584 382 595 c 0,2,3
 369 603 369 603 360 607 c 128,-1,4
 351 611 351 611 340 611 c 0,5,6
 323 611 323 611 309 602 c 128,-1,7
 295 593 295 593 288 575 c 1,8,-1
 222 575 l 1,9,10
 241 625 241 625 274 649.5 c 128,-1,11
 307 674 307 674 350 674 c 0,12,13
 370 674 370 674 384.5 668 c 128,-1,14
 399 662 399 662 415 651 c 0,15,16
 430 642 430 642 439.5 638 c 128,-1,17
 449 634 449 634 461 634 c 0,18,19
 484 634 484 634 508 658 c 0,20,21
 526 676 526 676 541 676 c 0,22,23
 552 676 552 676 559 669.5 c 128,-1,24
 566 663 566 663 566 653 c 0,25,26
 566 635 566 635 549 616 c 128,-1,27
 532 597 532 597 505.5 584.5 c 128,-1,28
 479 572 479 572 454 572 c 0,29,0
 431 572 431 572 415.5 578 c 128,-1,1
EndSplineSet
Substitution2: "Single Substitution lookup 12 subtable" tildecomb.case
Substitution2: "'case' Case-Sensitive Forms in Latin lookup 9 subtable" tildecomb.case
AlternateSubs2: "'aalt' Access All Alternates in Latin lookup 0 subtable" tildecomb.case
EndChar
StartChar: uni0307
Encoding: 775 775 337
Width: 0
GlyphClass: 4
Flags: W
AnchorPoint: "Anchor-5" 414 707 basemark 0
AnchorPoint: "Anchor-5" 369 496 mark 0
AnchorPoint: "Anchor-1" 369 496 mark 0
LayerCount: 2
Fore
SplineSet
357.5 601.5 m 128,-1,1
 339 620 339 620 339 645 c 0,2,3
 339 671 339 671 357.5 689 c 128,-1,4
 376 707 376 707 401 707 c 256,5,6
 426 707 426 707 444.5 688.5 c 128,-1,7
 463 670 463 670 463 645 c 256,8,9
 463 620 463 620 444.5 601.5 c 128,-1,10
 426 583 426 583 401 583 c 256,11,0
 376 583 376 583 357.5 601.5 c 128,-1,1
EndSplineSet
Substitution2: "Single Substitution lookup 12 subtable" uni0307.case
Substitution2: "'case' Case-Sensitive Forms in Latin lookup 9 subtable" uni0307.case
AlternateSubs2: "'aalt' Access All Alternates in Latin lookup 0 subtable" uni0307.case
EndChar
StartChar: uni0328
Encoding: 808 808 361
Width: 0
GlyphClass: 4
Flags: W
AnchorPoint: "Anchor-2" 358 10 mark 0
LayerCount: 2
Fore
SplineSet
191.5 -152.5 m 128,-1,1
 154 -133 154 -133 154 -97 c 0,2,3
 154 -59 154 -59 188.5 -31 c 128,-1,4
 223 -3 223 -3 272 17 c 1,5,-1
 356 0 l 1,6,7
 312 -9 312 -9 280.5 -31 c 128,-1,8
 249 -53 249 -53 249 -80 c 0,9,10
 249 -111 249 -111 298 -111 c 0,11,12
 315 -111 315 -111 333 -107 c 1,13,-1
 320 -168 l 1,14,15
 303 -172 303 -172 280 -172 c 0,16,0
 229 -172 229 -172 191.5 -152.5 c 128,-1,1
EndSplineSet
Substitution2: "Single Substitution lookup 12 subtable" uni0328.case
Substitution2: "'case' Case-Sensitive Forms in Latin lookup 9 subtable" uni0328.case
AlternateSubs2: "'aalt' Access All Alternates in Latin lookup 0 subtable" uni0328.case
EndChar
StartChar: uni0394
Encoding: 916 916 225
Width: 632
GlyphClass: 1
Flags: W
LayerCount: 2
Fore
SplineSet
346 668 m 1,0,-1
 465 668 l 1,1,-1
 546 0 l 1,2,-1
 -20 0 l 1,3,-1
 346 668 l 1,0,-1
437 93 m 1,4,-1
 385 552 l 1,5,-1
 381 552 l 1,6,-1
 134 93 l 1,7,-1
 437 93 l 1,4,-1
EndSplineSet
EndChar
StartChar: uni03BC
Encoding: 956 956 227
Width: 632
GlyphClass: 1
Flags: W
LayerCount: 2
Fore
SplineSet
143 496 m 1,0,-1
 252 496 l 1,1,-1
 191 209 l 2,2,3
 185 182 185 182 185 158 c 0,4,5
 185 75 185 75 262 75 c 0,6,7
 309 75 309 75 350 119 c 128,-1,8
 391 163 391 163 406 236 c 2,9,-1
 462 496 l 1,10,-1
 572 496 l 1,11,-1
 497 147 l 2,12,13
 493 131 493 131 493 118 c 0,14,15
 493 102 493 102 502.5 95.5 c 128,-1,16
 512 89 512 89 536 89 c 2,17,-1
 551 89 l 1,18,-1
 533 0 l 1,19,-1
 480 0 l 2,20,21
 422 0 422 0 400 17.5 c 128,-1,22
 378 35 378 35 376 69 c 1,23,24
 345 30 345 30 303 9 c 128,-1,25
 261 -12 261 -12 221 -12 c 0,26,27
 176 -12 176 -12 150 14 c 1,28,-1
 112 -162 l 1,29,-1
 3 -162 l 1,30,-1
 143 496 l 1,0,-1
EndSplineSet
EndChar
StartChar: uni1E9E
Encoding: 7838 7838 82
Width: 632
GlyphClass: 1
Flags: W
LayerCount: 2
Fore
SplineSet
276.5 20.5 m 128,-1,1
 235 53 235 53 224 108 c 1,2,-1
 311 139 l 1,3,4
 316 108 316 108 337 93.5 c 128,-1,5
 358 79 358 79 389 79 c 0,6,7
 433 79 433 79 460.5 116.5 c 128,-1,8
 488 154 488 154 488 202 c 0,9,10
 488 239 488 239 467.5 263 c 128,-1,11
 447 287 447 287 408 287 c 0,12,13
 395 287 395 287 372 282 c 1,14,-1
 346 354 l 1,15,-1
 550 578 l 1,16,17
 484 591 484 591 419 591 c 0,18,19
 332 591 332 591 282 558.5 c 128,-1,20
 232 526 232 526 216 445 c 2,21,-1
 122 0 l 1,22,-1
 9 0 l 1,23,-1
 109 476 l 2,24,25
 132 587 132 587 205 633.5 c 128,-1,26
 278 680 278 680 416 680 c 0,27,28
 540 680 540 680 667 651 c 1,29,-1
 647 556 l 1,30,-1
 465 356 l 1,31,32
 522 347 522 347 557 305.5 c 128,-1,33
 592 264 592 264 592 205 c 256,34,35
 592 146 592 146 565 96.5 c 128,-1,36
 538 47 538 47 489.5 17.5 c 128,-1,37
 441 -12 441 -12 381 -12 c 0,38,0
 318 -12 318 -12 276.5 20.5 c 128,-1,1
EndSplineSet
EndChar
StartChar: quoteright
Encoding: 8217 8217 279
Width: 632
GlyphClass: 1
Flags: W
LayerCount: 2
Fore
SplineSet
322 550.5 m 128,-1,1
 308 572 308 572 308 597 c 0,2,3
 308 631 308 631 332.5 655.5 c 128,-1,4
 357 680 357 680 392 680 c 256,5,6
 427 680 427 680 450.5 656.5 c 128,-1,7
 474 633 474 633 474 602 c 0,8,9
 474 586 474 586 469.5 573 c 128,-1,10
 465 560 465 560 455 545 c 2,11,-1
 348 375 l 1,12,-1
 270 375 l 1,13,-1
 361 519 l 1,14,0
 336 529 336 529 322 550.5 c 128,-1,1
EndSplineSet
EndChar
StartChar: quotedblbase
Encoding: 8222 8222 275
Width: 632
GlyphClass: 1
Flags: W
LayerCount: 2
Fore
SplineSet
100.5 18 m 128,-1,1
 86 38 86 38 86 64 c 0,2,3
 86 98 86 98 109.5 121.5 c 128,-1,4
 133 145 133 145 167 145 c 256,5,6
 201 145 201 145 224 122 c 128,-1,7
 247 99 247 99 247 67 c 0,8,9
 247 39 247 39 229 13 c 2,10,-1
 125 -151 l 1,11,-1
 47 -151 l 1,12,-1
 138 -12 l 1,13,0
 115 -2 115 -2 100.5 18 c 128,-1,1
322.5 18 m 128,-1,15
 308 38 308 38 308 64 c 0,16,17
 308 98 308 98 332 121.5 c 128,-1,18
 356 145 356 145 389 145 c 0,19,20
 424 145 424 145 447 122 c 128,-1,21
 470 99 470 99 470 67 c 0,22,23
 470 42 470 42 452 13 c 2,24,-1
 347 -151 l 1,25,-1
 270 -151 l 1,26,-1
 360 -12 l 1,27,14
 337 -2 337 -2 322.5 18 c 128,-1,15
EndSplineSet
EndChar
StartChar: dagger
Encoding: 8224 8224 298
Width: 632
GlyphClass: 1
Flags: W
LayerCount: 2
Fore
SplineSet
299 409 m 1,0,-1
 113 409 l 1,1,-1
 131 496 l 1,2,-1
 317 496 l 1,3,-1
 354 668 l 1,4,-1
 459 668 l 1,5,-1
 422 496 l 1,6,-1
 607 496 l 1,7,-1
 589 409 l 1,8,-1
 404 409 l 1,9,-1
 317 0 l 1,10,-1
 212 0 l 1,11,-1
 299 409 l 1,0,-1
EndSplineSet
EndChar
StartChar: guilsinglleft
Encoding: 8249 8249 282
Width: 632
GlyphClass: 1
Flags: W
LayerCount: 2
Fore
SplineSet
181 250 m 1,0,-1
 370 460 l 1,1,-1
 497 460 l 1,2,-1
 301 244 l 1,3,-1
 408 40 l 1,4,-1
 291 40 l 1,5,-1
 181 250 l 1,0,-1
EndSplineSet
EndChar
StartChar: Euro
Encoding: 8364 8364 305
Width: 632
GlyphClass: 1
Flags: W
LayerCount: 2
Fore
SplineSet
173 58.5 m 128,-1,1
 114 129 114 129 109 238 c 1,2,-1
 17 238 l 1,3,-1
 58 296 l 1,4,-1
 111 296 l 1,5,6
 114 336 114 336 124 374 c 1,7,-1
 45 374 l 1,8,-1
 86 432 l 1,9,-1
 141 432 l 1,10,11
 180 541 180 541 256 611.5 c 128,-1,12
 332 682 332 682 439 682 c 0,13,14
 518 682 518 682 572.5 639 c 128,-1,15
 627 596 627 596 648 525 c 1,16,-1
 555 493 l 1,17,18
 542 537 542 537 509 562.5 c 128,-1,19
 476 588 476 588 428 588 c 0,20,21
 366 588 366 588 322 544.5 c 128,-1,22
 278 501 278 501 251 432 c 1,23,-1
 475 432 l 1,24,-1
 433 374 l 1,25,-1
 233 374 l 1,26,27
 222 331 222 331 219 296 c 1,28,-1
 381 296 l 1,29,-1
 340 238 l 1,30,-1
 218 238 l 1,31,32
 222 168 222 168 255 125 c 128,-1,33
 288 82 288 82 353 82 c 0,34,35
 399 82 399 82 436 105 c 128,-1,36
 473 128 473 128 498 173 c 1,37,-1
 591 135 l 1,38,39
 548 63 548 63 483 25.5 c 128,-1,40
 418 -12 418 -12 343 -12 c 0,41,0
 232 -12 232 -12 173 58.5 c 128,-1,1
EndSplineSet
EndChar
StartChar: trademark
Encoding: 8482 8482 294
Width: 632
GlyphClass: 1
Flags: W
LayerCount: 2
Fore
SplineSet
171 610 m 1,0,-1
 85 610 l 1,1,-1
 97 668 l 1,2,-1
 333 668 l 1,3,-1
 320 610 l 1,4,-1
 234 610 l 1,5,-1
 177 343 l 1,6,-1
 113 343 l 1,7,-1
 171 610 l 1,0,-1
370 668 m 1,8,-1
 465 668 l 1,9,-1
 486 431 l 1,10,-1
 490 431 l 1,11,-1
 612 668 l 1,12,-1
 713 668 l 1,13,-1
 643 343 l 1,14,-1
 581 343 l 1,15,-1
 634 593 l 1,16,-1
 630 593 l 1,17,-1
 500 343 l 1,18,-1
 443 343 l 1,19,-1
 418 593 l 1,20,-1
 414 593 l 1,21,-1
 361 343 l 1,22,-1
 300 343 l 1,23,-1
 370 668 l 1,8,-1
EndSplineSet
EndChar
StartChar: product
Encoding: 8719 8719 328
Width: 632
GlyphClass: 1
Flags: W
LayerCount: 2
Fore
SplineSet
168 668 m 1,0,-1
 642 668 l 1,1,-1
 466 -162 l 1,2,-1
 369 -162 l 1,3,-1
 526 576 l 1,4,-1
 245 576 l 1,5,-1
 89 -162 l 1,6,-1
 -8 -162 l 1,7,-1
 168 668 l 1,0,-1
EndSplineSet
EndChar
StartChar: radical
Encoding: 8730 8730 330
Width: 632
GlyphClass: 1
Flags: W
LayerCount: 2
Fore
SplineSet
122 128 m 1,0,-1
 14 128 l 1,1,-1
 35 225 l 1,2,-1
 207 225 l 1,3,-1
 257 -28 l 1,4,-1
 590 668 l 1,5,-1
 702 668 l 1,6,-1
 301 -162 l 1,7,-1
 184 -162 l 1,8,-1
 122 128 l 1,0,-1
EndSplineSet
EndChar
StartChar: integral
Encoding: 8747 8747 327
Width: 632
GlyphClass: 1
Flags: W
LayerCount: 2
Fore
SplineSet
83.5 -156 m 128,-1,1
 56 -139 56 -139 56 -107 c 0,2,3
 56 -84 56 -84 72 -66.5 c 128,-1,4
 88 -49 88 -49 114 -49 c 0,5,6
 136 -49 136 -49 150 -61.5 c 128,-1,7
 164 -74 164 -74 164 -95 c 0,8,9
 164 -106 164 -106 159 -121 c 1,10,11
 188 -112 188 -112 206 -32 c 2,12,-1
 319 474 l 2,13,14
 344 587 344 587 388.5 634 c 128,-1,15
 433 681 433 681 492 681 c 0,16,17
 528 681 528 681 555.5 664 c 128,-1,18
 583 647 583 647 583 615 c 0,19,20
 583 593 583 593 566.5 575.5 c 128,-1,21
 550 558 550 558 524 558 c 0,22,23
 502 558 502 558 488.5 570.5 c 128,-1,24
 475 583 475 583 475 604 c 0,25,26
 475 619 475 619 480 629 c 1,27,28
 465 624 465 624 453.5 603 c 128,-1,29
 442 582 442 582 433 540 c 2,30,-1
 320 34 l 2,31,32
 295 -79 295 -79 250.5 -126 c 128,-1,33
 206 -173 206 -173 147 -173 c 0,34,0
 111 -173 111 -173 83.5 -156 c 128,-1,1
EndSplineSet
EndChar
StartChar: approxequal
Encoding: 8776 8776 322
Width: 632
GlyphClass: 1
Flags: W
LayerCount: 2
Fore
SplineSet
201 233 m 0,1,2
 229 233 229 233 253 224 c 128,-1,3
 277 215 277 215 307 199 c 0,4,5
 334 185 334 185 353 177.5 c 128,-1,6
 372 170 372 170 393 170 c 0,7,8
 450 170 450 170 467 237 c 1,9,-1
 541 212 l 1,10,11
 500 78 500 78 392 78 c 0,12,13
 364 78 364 78 340 87 c 128,-1,14
 316 96 316 96 286 112 c 0,15,16
 259 126 259 126 240 133.5 c 128,-1,17
 221 141 221 141 200 141 c 0,18,19
 143 141 143 141 126 74 c 1,20,-1
 52 99 l 1,21,0
 93 233 93 233 201 233 c 0,1,2
243 430 m 0,23,24
 272 430 272 430 296 421 c 128,-1,25
 320 412 320 412 350 396 c 0,26,27
 380 381 380 381 397.5 374.5 c 128,-1,28
 415 368 415 368 435 368 c 0,29,30
 491 368 491 368 510 435 c 1,31,-1
 584 409 l 1,32,33
 542 276 542 276 435 276 c 0,34,35
 406 276 406 276 382 285 c 128,-1,36
 358 294 358 294 328 310 c 0,37,38
 298 325 298 325 281 331.5 c 128,-1,39
 264 338 264 338 243 338 c 0,40,41
 187 338 187 338 168 271 c 1,42,-1
 94 297 l 1,43,22
 136 430 136 430 243 430 c 0,23,24
EndSplineSet
EndChar
StartChar: notequal
Encoding: 8800 8800 316
Width: 632
GlyphClass: 1
Flags: W
LayerCount: 2
Fore
SplineSet
135 113 m 1,0,-1
 35 113 l 1,1,-1
 55 208 l 1,2,-1
 220 208 l 1,3,-1
 301 297 l 1,4,-1
 74 297 l 1,5,-1
 94 390 l 1,6,-1
 384 390 l 1,7,-1
 480 496 l 1,8,-1
 599 496 l 1,9,-1
 503 390 l 1,10,-1
 599 390 l 1,11,-1
 579 297 l 1,12,-1
 420 297 l 1,13,-1
 339 208 l 1,14,-1
 561 208 l 1,15,-1
 541 113 l 1,16,-1
 254 113 l 1,17,-1
 153 0 l 1,18,-1
 33 0 l 1,19,-1
 135 113 l 1,0,-1
EndSplineSet
EndChar
StartChar: lessequal
Encoding: 8804 8804 320
Width: 632
GlyphClass: 1
Flags: W
LayerCount: 2
Fore
SplineSet
76 263 m 1,0,-1
 96 356 l 1,1,-1
 611 497 l 1,2,-1
 589 395 l 1,3,-1
 217 305 l 1,4,-1
 551 216 l 1,5,-1
 531 122 l 1,6,-1
 76 263 l 1,0,-1
40 95 m 1,7,-1
 526 95 l 1,8,-1
 506 0 l 1,9,-1
 20 0 l 1,10,-1
 40 95 l 1,7,-1
EndSplineSet
EndChar
StartChar: greaterequal
Encoding: 8805 8805 319
Width: 632
GlyphClass: 1
Flags: W
LayerCount: 2
Fore
SplineSet
68 224 m 1,0,-1
 439 313 l 1,1,-1
 106 403 l 1,2,-1
 126 497 l 1,3,-1
 581 356 l 1,4,-1
 561 263 l 1,5,-1
 46 122 l 1,6,-1
 68 224 l 1,0,-1
41 95 m 1,7,-1
 526 95 l 1,8,-1
 506 0 l 1,9,-1
 21 0 l 1,10,-1
 41 95 l 1,7,-1
EndSplineSet
EndChar
StartChar: lozenge
Encoding: 9674 9674 334
Width: 632
GlyphClass: 1
Flags: W
LayerCount: 2
Fore
SplineSet
91 315 m 1,0,-1
 414 707 l 1,1,-1
 569 315 l 1,2,-1
 247 -78 l 1,3,-1
 91 315 l 1,0,-1
467 324 m 1,4,-1
 383 537 l 1,5,-1
 193 306 l 1,6,-1
 278 92 l 1,7,-1
 467 324 l 1,4,-1
EndSplineSet
EndChar
StartChar: acutecomb.case
Encoding: 65544 -1 343
Width: 0
GlyphClass: 4
Flags: W
AnchorPoint: "Anchor-5" 398 870 basemark 0
AnchorPoint: "Anchor-5" 355 668 mark 0
AnchorPoint: "Anchor-1" 355 668 mark 0
LayerCount: 2
Fore
SplineSet
475 856 m 128,-1,1
 489 863 489 863 504 863 c 0,2,3
 521 863 521 863 531.5 854 c 128,-1,4
 542 845 542 845 542 831 c 0,5,6
 542 814 542 814 529.5 801 c 128,-1,7
 517 788 517 788 490 773 c 2,8,-1
 423 734 l 1,9,-1
 325 734 l 1,10,-1
 440 832 l 2,11,0
 461 849 461 849 475 856 c 128,-1,1
EndSplineSet
EndChar
StartChar: gravecomb.case
Encoding: 65543 -1 341
Width: 0
GlyphClass: 4
Flags: W
AnchorPoint: "Anchor-5" 498 870 basemark 0
AnchorPoint: "Anchor-5" 455 668 mark 0
AnchorPoint: "Anchor-1" 455 668 mark 0
LayerCount: 2
Fore
SplineSet
350 795.5 m 128,-1,1
 343 805 343 805 343 816 c 0,2,3
 343 835 343 835 356.5 849 c 128,-1,4
 370 863 370 863 389 863 c 0,5,6
 409 863 409 863 433 832 c 2,7,-1
 505 734 l 1,8,-1
 424 734 l 1,9,-1
 373 773 l 2,10,0
 357 786 357 786 350 795.5 c 128,-1,1
EndSplineSet
EndChar
StartChar: uni0307.case
Encoding: 65541 -1 338
Width: 0
GlyphClass: 4
Flags: W
AnchorPoint: "Anchor-5" 444 851 basemark 0
AnchorPoint: "Anchor-5" 406 668 mark 0
AnchorPoint: "Anchor-1" 406 668 mark 0
LayerCount: 2
Fore
SplineSet
387.5 745.5 m 128,-1,1
 369 764 369 764 369 789 c 256,2,3
 369 814 369 814 387.5 832.5 c 128,-1,4
 406 851 406 851 431 851 c 0,5,6
 457 851 457 851 475 833 c 128,-1,7
 493 815 493 815 493 789 c 0,8,9
 493 764 493 764 475 745.5 c 128,-1,10
 457 727 457 727 431 727 c 0,11,0
 406 727 406 727 387.5 745.5 c 128,-1,1
EndSplineSet
EndChar
StartChar: uni0307.large
Encoding: 65542 -1 339
Width: 0
GlyphClass: 4
Flags: W
AnchorPoint: "Anchor-5" 420 731 basemark 0
AnchorPoint: "Anchor-5" 370 496 mark 0
AnchorPoint: "Anchor-1" 370 496 mark 0
LayerCount: 2
Fore
SplineSet
353 609 m 128,-1,1
 332 630 332 630 332 659 c 0,2,3
 332 689 332 689 353 710 c 128,-1,4
 374 731 374 731 404 731 c 0,5,6
 433 731 433 731 454 710 c 128,-1,7
 475 689 475 689 475 659 c 0,8,9
 475 630 475 630 454 609 c 128,-1,10
 433 588 433 588 404 588 c 0,11,0
 374 588 374 588 353 609 c 128,-1,1
EndSplineSet
EndChar
StartChar: uni030A.case
Encoding: 65550 -1 354
Width: 0
GlyphClass: 4
Flags: W
AnchorPoint: "Anchor-5" 444 850 basemark 0
AnchorPoint: "Anchor-5" 414 668 mark 0
AnchorPoint: "Anchor-1" 414 668 mark 0
LayerCount: 2
Fore
SplineSet
337 652.5 m 128,-1,1
 303 687 303 687 303 735 c 256,2,3
 303 783 303 783 337 816.5 c 128,-1,4
 371 850 371 850 419 850 c 256,5,6
 467 850 467 850 501 816.5 c 128,-1,7
 535 783 535 783 535 735 c 256,8,9
 535 687 535 687 501 652.5 c 128,-1,10
 467 618 467 618 419 618 c 256,11,0
 371 618 371 618 337 652.5 c 128,-1,1
455.5 698.5 m 128,-1,13
 470 713 470 713 470 734 c 256,14,15
 470 755 470 755 455.5 770 c 128,-1,16
 441 785 441 785 419 785 c 0,17,18
 399 785 399 785 384 770 c 128,-1,19
 369 755 369 755 369 734 c 256,20,21
 369 713 369 713 384 698.5 c 128,-1,22
 399 684 399 684 419 684 c 0,23,12
 441 684 441 684 455.5 698.5 c 128,-1,13
EndSplineSet
EndChar
StartChar: uni030C.alt
Encoding: 65546 -1 346
Width: 0
GlyphClass: 4
Flags: W
AnchorPoint: "Anchor-3" 298 496 mark 0
LayerCount: 2
Fore
SplineSet
397.5 705.5 m 128,-1,1
 412 718 412 718 433 718 c 0,2,3
 452 718 452 718 462.5 708.5 c 128,-1,4
 473 699 473 699 473 686 c 0,5,6
 473 675 473 675 467 662.5 c 128,-1,7
 461 650 461 650 447 627 c 2,8,-1
 389 532 l 1,9,-1
 321 532 l 1,10,-1
 372 667 l 2,11,0
 383 693 383 693 397.5 705.5 c 128,-1,1
EndSplineSet
EndChar
StartChar: uni0328.alt
Encoding: 65553 -1 362
Width: 0
GlyphClass: 4
Flags: W
AnchorPoint: "Anchor-2" 357 10 mark 0
LayerCount: 2
Fore
SplineSet
191.5 -151.5 m 128,-1,1
 155 -132 155 -132 155 -93 c 0,2,3
 155 -55 155 -55 192 -18.5 c 128,-1,4
 229 18 229 18 273 34 c 1,5,-1
 346 32 l 1,6,7
 307 11 307 11 278 -17 c 128,-1,8
 249 -45 249 -45 249 -73 c 0,9,10
 249 -92 249 -92 262.5 -101.5 c 128,-1,11
 276 -111 276 -111 299 -111 c 0,12,13
 317 -111 317 -111 333 -107 c 1,14,-1
 320 -167 l 1,15,16
 300 -171 300 -171 285 -171 c 0,17,0
 228 -171 228 -171 191.5 -151.5 c 128,-1,1
EndSplineSet
EndChar
